<svg width="24" height="24" viewBox="0 0 24 24" fill="none" xmlns="http://www.w3.org/2000/svg">
<path d="M6.95046 1.77484C6.32084 1.90718 5.89976 2.13978 5.44258 2.59695C5.14582 2.88971 5.04556 3.02205 4.90921 3.29876C4.68864 3.75192 4.60844 4.10082 4.61245 4.62216C4.61646 5.12747 4.72073 5.53652 4.95733 5.96562C5.17389 6.35462 5.71529 6.88399 6.08423 7.07648C7.31139 7.7061 8.66688 7.46949 9.56118 6.46691C10.5598 5.34402 10.5116 3.6637 9.4529 2.59294C8.91151 2.04353 8.31397 1.78286 7.548 1.75479C7.3154 1.74676 7.04671 1.75479 6.95046 1.77484Z" fill="#2694B7"/>
<path d="M14.0495 5.56853C13.8089 5.65676 13.8851 5.60062 11.9521 7.03631L10.2357 8.31159H9.86674C9.44165 8.31159 9.16494 8.37576 8.81203 8.5482C8.53933 8.68455 8.19444 8.94923 8.19043 9.02142C8.19043 9.04949 8.27866 9.29412 8.38694 9.56281C8.59948 10.1042 8.80401 10.7138 9.09275 11.7003C9.39353 12.7069 9.55394 12.9956 9.98304 13.2884C10.368 13.5531 10.9495 13.6453 11.4187 13.513C11.6714 13.4408 13.6204 12.8352 13.6364 12.8232C13.6405 12.8192 13.3477 12.2577 12.9868 11.576L12.3291 10.3408L12.8945 9.91572C13.2073 9.68312 13.9172 9.15777 14.4706 8.74471C15.798 7.75817 15.9103 7.61781 15.9103 6.90798C15.9103 6.5671 15.8983 6.50294 15.79 6.2944C15.6536 6.0217 15.3529 5.73296 15.0882 5.61265C14.8395 5.50437 14.2941 5.48031 14.0495 5.56853Z" fill="#2694B7"/>
<path d="M5.50303 8.09505C5.06189 8.21135 4.5606 8.52416 4.23577 8.88509C2.78804 10.4972 2.58351 13.6012 3.7425 16.4004C4.16759 17.4311 4.71701 18.2412 5.49501 19.0031L5.95218 19.4483L5.77974 20.6955C5.62735 21.8023 5.61532 21.9587 5.66344 22.051C5.78776 22.2796 5.58725 22.2715 10.0387 22.2595L14.1332 22.2475L14.2295 22.1352C14.3538 21.9908 14.3538 21.9186 14.2054 20.8679C14.1372 20.3987 14.0851 19.9736 14.0851 19.9255C14.0851 19.8573 14.1613 19.8052 14.4781 19.6528C16.2026 18.8307 17.5019 17.5033 17.939 16.1157C18.2077 15.2535 18.0794 14.2148 17.6503 13.8258C17.3255 13.5371 16.9926 13.4368 16.3309 13.4408C15.4807 13.4448 14.4661 13.6694 12.4449 14.3111C12.0599 14.4354 11.6268 14.5597 11.4824 14.5918C10.2793 14.8444 8.99602 14.2188 8.45463 13.108C8.37843 12.9516 8.19796 12.4182 8.04958 11.9249C7.5523 10.2526 7.17533 9.29815 6.79034 8.74072C6.38129 8.14719 6.00432 7.9587 5.50303 8.09505Z" fill="#2694B7"/>
<path d="M15.4121 11.2633C14.987 11.4156 14.7504 11.6563 14.4456 12.2458C14.3374 12.4583 14.2451 12.6468 14.2451 12.6548C14.2451 12.6669 14.3494 12.6508 14.4777 12.6187C15.1916 12.4463 15.6768 12.3861 16.3104 12.3821C17.2128 12.3821 17.6378 12.4944 18.1552 12.8634C18.3998 13.0358 18.6083 13.2644 18.7647 13.5251C18.869 13.7015 19.0375 14.1747 19.0776 14.3953L19.1056 14.5638L19.3583 14.5878C19.6911 14.6239 19.9077 14.5878 20.2085 14.4434C20.6295 14.2429 20.9063 13.866 20.9825 13.3927C21.0947 12.6829 20.6576 12.0012 19.9598 11.7926C19.7072 11.7204 16.1099 11.1991 15.8573 11.1991C15.7089 11.2031 15.5084 11.2312 15.4121 11.2633Z" fill="#2694B7"/>
</svg>
