<svg width="1016" height="97" viewBox="0 0 1016 97" fill="none" xmlns="http://www.w3.org/2000/svg">
<line x1="22" y1="17.5" x2="486" y2="17.5" stroke="url(#paint0_linear_202_7708)" stroke-width="3"/>
<path d="M6.30239 1.5C3.1715 1.5 0.997478 4.61782 2.07984 7.55567L10.9219 31.5557C11.5737 33.3248 13.2592 34.5 15.1445 34.5H39.6976C42.8285 34.5 45.0025 31.3822 43.9202 28.4443L35.078 4.44433C34.4263 2.67525 32.7408 1.5 30.8555 1.5H6.30239Z" fill="#F6F9FC" stroke="#CCE5EE" stroke-width="3"/>
<path d="M5.43179 8.00901C4.73403 6.05528 6.18242 4 8.25701 4H29.8858C31.1537 4 32.2846 4.79701 32.7111 5.99099L40.5682 27.991C41.266 29.9447 39.8176 32 37.743 32H16.1142C14.8463 32 13.7154 31.203 13.2889 30.009L5.43179 8.00901Z" fill="#2694B7"/>
<path d="M469.903 7.84084C469.321 6.21273 470.528 4.5 472.257 4.5H493.886C494.942 4.5 495.885 5.16418 496.24 6.15916L504.097 28.1592C504.679 29.7873 503.472 31.5 501.743 31.5H480.114C479.058 31.5 478.115 30.8358 477.76 29.8408L469.903 7.84084Z" fill="#DEE2E6" stroke="#DEE2E6"/>
<path d="M935.903 7.84084C935.321 6.21273 936.528 4.5 938.257 4.5H959.886C960.942 4.5 961.885 5.16418 962.24 6.15916L970.097 28.1592C970.679 29.7873 969.472 31.5 967.743 31.5H946.114C945.058 31.5 944.115 30.8358 943.76 29.8408L935.903 7.84084Z" fill="#DEE2E6" stroke="#DEE2E6"/>
<line x1="487" y1="17.5" x2="953" y2="17.5" stroke="#DEE2E6" stroke-width="3"/>
<path d="M10.046 85.574C10.718 85.694 11.288 86.048 11.756 86.636C12.224 87.224 12.458 87.89 12.458 88.634C12.458 89.27 12.29 89.846 11.954 90.362C11.63 90.866 11.156 91.268 10.532 91.568C9.908 91.856 9.182 92 8.354 92H3.35V79.49H8.12C8.972 79.49 9.704 79.634 10.316 79.922C10.928 80.21 11.39 80.6 11.702 81.092C12.014 81.572 12.17 82.112 12.17 82.712C12.17 83.432 11.978 84.032 11.594 84.512C11.21 84.992 10.694 85.346 10.046 85.574ZM5.402 84.746H7.94C8.612 84.746 9.134 84.596 9.506 84.296C9.89 83.984 10.082 83.54 10.082 82.964C10.082 82.4 9.89 81.962 9.506 81.65C9.134 81.326 8.612 81.164 7.94 81.164H5.402V84.746ZM8.174 90.326C8.87 90.326 9.416 90.158 9.812 89.822C10.208 89.486 10.406 89.018 10.406 88.418C10.406 87.806 10.196 87.32 9.776 86.96C9.356 86.6 8.798 86.42 8.102 86.42H5.402V90.326H8.174ZM14.0039 86.996C14.0039 86 14.2079 85.118 14.6159 84.35C15.0359 83.582 15.5999 82.988 16.3079 82.568C17.0279 82.136 17.8199 81.92 18.6839 81.92C19.4639 81.92 20.1419 82.076 20.7179 82.388C21.3059 82.688 21.7739 83.066 22.1219 83.522V82.082H24.1919V92H22.1219V90.524C21.7739 90.992 21.2999 91.382 20.6999 91.694C20.0999 92.006 19.4159 92.162 18.6479 92.162C17.7959 92.162 17.0159 91.946 16.3079 91.514C15.5999 91.07 15.0359 90.458 14.6159 89.678C14.2079 88.886 14.0039 87.992 14.0039 86.996ZM22.1219 87.032C22.1219 86.348 21.9779 85.754 21.6899 85.25C21.4139 84.746 21.0479 84.362 20.5919 84.098C20.1359 83.834 19.6439 83.702 19.1159 83.702C18.5879 83.702 18.0959 83.834 17.6399 84.098C17.1839 84.35 16.8119 84.728 16.5239 85.232C16.2479 85.724 16.1099 86.312 16.1099 86.996C16.1099 87.68 16.2479 88.28 16.5239 88.796C16.8119 89.312 17.1839 89.708 17.6399 89.984C18.1079 90.248 18.5999 90.38 19.1159 90.38C19.6439 90.38 20.1359 90.248 20.5919 89.984C21.0479 89.72 21.4139 89.336 21.6899 88.832C21.9779 88.316 22.1219 87.716 22.1219 87.032ZM30.4871 92.162C29.7071 92.162 29.0051 92.024 28.3811 91.748C27.7691 91.46 27.2831 91.076 26.9231 90.596C26.5631 90.104 26.3711 89.558 26.3471 88.958H28.4711C28.5071 89.378 28.7051 89.732 29.0651 90.02C29.4371 90.296 29.8991 90.434 30.4511 90.434C31.0271 90.434 31.4711 90.326 31.7831 90.11C32.1071 89.882 32.2691 89.594 32.2691 89.246C32.2691 88.874 32.0891 88.598 31.7291 88.418C31.3811 88.238 30.8231 88.04 30.0551 87.824C29.3111 87.62 28.7051 87.422 28.2371 87.23C27.7691 87.038 27.3611 86.744 27.0131 86.348C26.6771 85.952 26.5091 85.43 26.5091 84.782C26.5091 84.254 26.6651 83.774 26.9771 83.342C27.2891 82.898 27.7331 82.55 28.3091 82.298C28.8971 82.046 29.5691 81.92 30.3251 81.92C31.4531 81.92 32.3591 82.208 33.0431 82.784C33.7391 83.348 34.1111 84.122 34.1591 85.106H32.1071C32.0711 84.662 31.8911 84.308 31.5671 84.044C31.2431 83.78 30.8051 83.648 30.2531 83.648C29.7131 83.648 29.2991 83.75 29.0111 83.954C28.7231 84.158 28.5791 84.428 28.5791 84.764C28.5791 85.028 28.6751 85.25 28.8671 85.43C29.0591 85.61 29.2931 85.754 29.5691 85.862C29.8451 85.958 30.2531 86.084 30.7931 86.24C31.5131 86.432 32.1011 86.63 32.5571 86.834C33.0251 87.026 33.4271 87.314 33.7631 87.698C34.0991 88.082 34.2731 88.592 34.2851 89.228C34.2851 89.792 34.1291 90.296 33.8171 90.74C33.5051 91.184 33.0611 91.532 32.4851 91.784C31.9211 92.036 31.2551 92.162 30.4871 92.162ZM37.5463 80.768C37.1743 80.768 36.8623 80.642 36.6103 80.39C36.3583 80.138 36.2323 79.826 36.2323 79.454C36.2323 79.082 36.3583 78.77 36.6103 78.518C36.8623 78.266 37.1743 78.14 37.5463 78.14C37.9063 78.14 38.2123 78.266 38.4643 78.518C38.7163 78.77 38.8423 79.082 38.8423 79.454C38.8423 79.826 38.7163 80.138 38.4643 80.39C38.2123 80.642 37.9063 80.768 37.5463 80.768ZM38.5543 82.082V92H36.5023V82.082H38.5543ZM40.5644 87.032C40.5644 86.012 40.7684 85.118 41.1764 84.35C41.5964 83.57 42.1724 82.97 42.9044 82.55C43.6364 82.13 44.4764 81.92 45.4244 81.92C46.6244 81.92 47.6144 82.208 48.3944 82.784C49.1864 83.348 49.7204 84.158 49.9964 85.214H47.7824C47.6024 84.722 47.3144 84.338 46.9184 84.062C46.5224 83.786 46.0244 83.648 45.4244 83.648C44.5844 83.648 43.9124 83.948 43.4084 84.548C42.9164 85.136 42.6704 85.964 42.6704 87.032C42.6704 88.1 42.9164 88.934 43.4084 89.534C43.9124 90.134 44.5844 90.434 45.4244 90.434C46.6124 90.434 47.3984 89.912 47.7824 88.868H49.9964C49.7084 89.876 49.1684 90.68 48.3764 91.28C47.5844 91.868 46.6004 92.162 45.4244 92.162C44.4764 92.162 43.6364 91.952 42.9044 91.532C42.1724 91.1 41.5964 90.5 41.1764 89.732C40.7684 88.952 40.5644 88.052 40.5644 87.032ZM58.7692 79.49V92H56.7172V79.49H58.7692ZM66.4673 81.92C67.2473 81.92 67.9433 82.082 68.5553 82.406C69.1793 82.73 69.6653 83.21 70.0133 83.846C70.3613 84.482 70.5353 85.25 70.5353 86.15V92H68.5013V86.456C68.5013 85.568 68.2793 84.89 67.8353 84.422C67.3913 83.942 66.7853 83.702 66.0173 83.702C65.2493 83.702 64.6373 83.942 64.1813 84.422C63.7373 84.89 63.5153 85.568 63.5153 86.456V92H61.4633V82.082H63.5153V83.216C63.8513 82.808 64.2773 82.49 64.7933 82.262C65.3213 82.034 65.8793 81.92 66.4673 81.92ZM77.3107 83.756H75.4747V92H73.4047V83.756H72.2347V82.082H73.4047V81.38C73.4047 80.24 73.7047 79.412 74.3047 78.896C74.9167 78.368 75.8707 78.104 77.1667 78.104V79.814C76.5427 79.814 76.1047 79.934 75.8527 80.174C75.6007 80.402 75.4747 80.804 75.4747 81.38V82.082H77.3107V83.756ZM83.4313 92.162C82.4953 92.162 81.6493 91.952 80.8933 91.532C80.1373 91.1 79.5433 90.5 79.1113 89.732C78.6793 88.952 78.4633 88.052 78.4633 87.032C78.4633 86.024 78.6853 85.13 79.1293 84.35C79.5733 83.57 80.1793 82.97 80.9473 82.55C81.7153 82.13 82.5733 81.92 83.5213 81.92C84.4693 81.92 85.3273 82.13 86.0953 82.55C86.8633 82.97 87.4693 83.57 87.9133 84.35C88.3573 85.13 88.5793 86.024 88.5793 87.032C88.5793 88.04 88.3513 88.934 87.8953 89.714C87.4393 90.494 86.8153 91.1 86.0233 91.532C85.2433 91.952 84.3793 92.162 83.4313 92.162ZM83.4313 90.38C83.9593 90.38 84.4513 90.254 84.9073 90.002C85.3753 89.75 85.7533 89.372 86.0413 88.868C86.3293 88.364 86.4733 87.752 86.4733 87.032C86.4733 86.312 86.3353 85.706 86.0593 85.214C85.7833 84.71 85.4173 84.332 84.9613 84.08C84.5053 83.828 84.0133 83.702 83.4853 83.702C82.9573 83.702 82.4653 83.828 82.0093 84.08C81.5653 84.332 81.2113 84.71 80.9473 85.214C80.6833 85.706 80.5513 86.312 80.5513 87.032C80.5513 88.1 80.8213 88.928 81.3613 89.516C81.9133 90.092 82.6033 90.38 83.4313 90.38Z" fill="#2694B7"/>
<path d="M468.666 85.718C468.666 84.494 468.948 83.396 469.512 82.424C470.088 81.452 470.862 80.696 471.834 80.156C472.818 79.604 473.892 79.328 475.056 79.328C476.388 79.328 477.57 79.658 478.602 80.318C479.646 80.966 480.402 81.89 480.87 83.09H478.404C478.08 82.43 477.63 81.938 477.054 81.614C476.478 81.29 475.812 81.128 475.056 81.128C474.228 81.128 473.49 81.314 472.842 81.686C472.194 82.058 471.684 82.592 471.312 83.288C470.952 83.984 470.772 84.794 470.772 85.718C470.772 86.642 470.952 87.452 471.312 88.148C471.684 88.844 472.194 89.384 472.842 89.768C473.49 90.14 474.228 90.326 475.056 90.326C475.812 90.326 476.478 90.164 477.054 89.84C477.63 89.516 478.08 89.024 478.404 88.364H480.87C480.402 89.564 479.646 90.488 478.602 91.136C477.57 91.784 476.388 92.108 475.056 92.108C473.88 92.108 472.806 91.838 471.834 91.298C470.862 90.746 470.088 89.984 469.512 89.012C468.948 88.04 468.666 86.942 468.666 85.718ZM482.588 86.996C482.588 86 482.792 85.118 483.2 84.35C483.62 83.582 484.184 82.988 484.892 82.568C485.612 82.136 486.404 81.92 487.268 81.92C488.048 81.92 488.726 82.076 489.302 82.388C489.89 82.688 490.358 83.066 490.706 83.522V82.082H492.776V92H490.706V90.524C490.358 90.992 489.884 91.382 489.284 91.694C488.684 92.006 488 92.162 487.232 92.162C486.38 92.162 485.6 91.946 484.892 91.514C484.184 91.07 483.62 90.458 483.2 89.678C482.792 88.886 482.588 87.992 482.588 86.996ZM490.706 87.032C490.706 86.348 490.562 85.754 490.274 85.25C489.998 84.746 489.632 84.362 489.176 84.098C488.72 83.834 488.228 83.702 487.7 83.702C487.172 83.702 486.68 83.834 486.224 84.098C485.768 84.35 485.396 84.728 485.108 85.232C484.832 85.724 484.694 86.312 484.694 86.996C484.694 87.68 484.832 88.28 485.108 88.796C485.396 89.312 485.768 89.708 486.224 89.984C486.692 90.248 487.184 90.38 487.7 90.38C488.228 90.38 488.72 90.248 489.176 89.984C489.632 89.72 489.998 89.336 490.274 88.832C490.562 88.316 490.706 87.716 490.706 87.032ZM497.523 83.522C497.823 83.018 498.219 82.628 498.711 82.352C499.215 82.064 499.809 81.92 500.493 81.92V84.044H499.971C499.167 84.044 498.555 84.248 498.135 84.656C497.727 85.064 497.523 85.772 497.523 86.78V92H495.471V82.082H497.523V83.522ZM506.371 85.718C506.371 84.494 506.653 83.396 507.217 82.424C507.793 81.452 508.567 80.696 509.539 80.156C510.523 79.604 511.597 79.328 512.761 79.328C514.093 79.328 515.275 79.658 516.307 80.318C517.351 80.966 518.107 81.89 518.575 83.09H516.109C515.785 82.43 515.335 81.938 514.759 81.614C514.183 81.29 513.517 81.128 512.761 81.128C511.933 81.128 511.195 81.314 510.547 81.686C509.899 82.058 509.389 82.592 509.017 83.288C508.657 83.984 508.477 84.794 508.477 85.718C508.477 86.642 508.657 87.452 509.017 88.148C509.389 88.844 509.899 89.384 510.547 89.768C511.195 90.14 511.933 90.326 512.761 90.326C513.517 90.326 514.183 90.164 514.759 89.84C515.335 89.516 515.785 89.024 516.109 88.364H518.575C518.107 89.564 517.351 90.488 516.307 91.136C515.275 91.784 514.093 92.108 512.761 92.108C511.585 92.108 510.511 91.838 509.539 91.298C508.567 90.746 507.793 89.984 507.217 89.012C506.653 88.04 506.371 86.942 506.371 85.718ZM526.107 81.92C526.863 81.92 527.535 82.082 528.123 82.406C528.723 82.73 529.191 83.21 529.527 83.846C529.875 84.482 530.049 85.25 530.049 86.15V92H528.015V86.456C528.015 85.568 527.793 84.89 527.349 84.422C526.905 83.942 526.299 83.702 525.531 83.702C524.763 83.702 524.151 83.942 523.695 84.422C523.251 84.89 523.029 85.568 523.029 86.456V92H520.977V78.68H523.029V83.234C523.377 82.814 523.815 82.49 524.343 82.262C524.883 82.034 525.471 81.92 526.107 81.92ZM536.968 92.162C536.032 92.162 535.186 91.952 534.43 91.532C533.674 91.1 533.08 90.5 532.648 89.732C532.216 88.952 532 88.052 532 87.032C532 86.024 532.222 85.13 532.666 84.35C533.11 83.57 533.716 82.97 534.484 82.55C535.252 82.13 536.11 81.92 537.058 81.92C538.006 81.92 538.864 82.13 539.632 82.55C540.4 82.97 541.006 83.57 541.45 84.35C541.894 85.13 542.116 86.024 542.116 87.032C542.116 88.04 541.888 88.934 541.432 89.714C540.976 90.494 540.352 91.1 539.56 91.532C538.78 91.952 537.916 92.162 536.968 92.162ZM536.968 90.38C537.496 90.38 537.988 90.254 538.444 90.002C538.912 89.75 539.29 89.372 539.578 88.868C539.866 88.364 540.01 87.752 540.01 87.032C540.01 86.312 539.872 85.706 539.596 85.214C539.32 84.71 538.954 84.332 538.498 84.08C538.042 83.828 537.55 83.702 537.022 83.702C536.494 83.702 536.002 83.828 535.546 84.08C535.102 84.332 534.748 84.71 534.484 85.214C534.22 85.706 534.088 86.312 534.088 87.032C534.088 88.1 534.358 88.928 534.898 89.516C535.45 90.092 536.14 90.38 536.968 90.38ZM545.189 80.768C544.817 80.768 544.505 80.642 544.253 80.39C544.001 80.138 543.875 79.826 543.875 79.454C543.875 79.082 544.001 78.77 544.253 78.518C544.505 78.266 544.817 78.14 545.189 78.14C545.549 78.14 545.855 78.266 546.107 78.518C546.359 78.77 546.485 79.082 546.485 79.454C546.485 79.826 546.359 80.138 546.107 80.39C545.855 80.642 545.549 80.768 545.189 80.768ZM546.197 82.082V92H544.145V82.082H546.197ZM548.207 87.032C548.207 86.012 548.411 85.118 548.819 84.35C549.239 83.57 549.815 82.97 550.547 82.55C551.279 82.13 552.119 81.92 553.067 81.92C554.267 81.92 555.257 82.208 556.037 82.784C556.829 83.348 557.363 84.158 557.639 85.214H555.425C555.245 84.722 554.957 84.338 554.561 84.062C554.165 83.786 553.667 83.648 553.067 83.648C552.227 83.648 551.555 83.948 551.051 84.548C550.559 85.136 550.313 85.964 550.313 87.032C550.313 88.1 550.559 88.934 551.051 89.534C551.555 90.134 552.227 90.434 553.067 90.434C554.255 90.434 555.041 89.912 555.425 88.868H557.639C557.351 89.876 556.811 90.68 556.019 91.28C555.227 91.868 554.243 92.162 553.067 92.162C552.119 92.162 551.279 91.952 550.547 91.532C549.815 91.1 549.239 90.5 548.819 89.732C548.411 88.952 548.207 88.052 548.207 87.032ZM568.774 86.798C568.774 87.17 568.75 87.506 568.702 87.806H561.124C561.184 88.598 561.478 89.234 562.006 89.714C562.534 90.194 563.182 90.434 563.95 90.434C565.054 90.434 565.834 89.972 566.29 89.048H568.504C568.204 89.96 567.658 90.71 566.866 91.298C566.086 91.874 565.114 92.162 563.95 92.162C563.002 92.162 562.15 91.952 561.394 91.532C560.65 91.1 560.062 90.5 559.63 89.732C559.21 88.952 559 88.052 559 87.032C559 86.012 559.204 85.118 559.612 84.35C560.032 83.57 560.614 82.97 561.358 82.55C562.114 82.13 562.978 81.92 563.95 81.92C564.886 81.92 565.72 82.124 566.452 82.532C567.184 82.94 567.754 83.516 568.162 84.26C568.57 84.992 568.774 85.838 568.774 86.798ZM566.632 86.15C566.62 85.394 566.35 84.788 565.822 84.332C565.294 83.876 564.64 83.648 563.86 83.648C563.152 83.648 562.546 83.876 562.042 84.332C561.538 84.776 561.238 85.382 561.142 86.15H566.632Z" fill="#ADBDCC"/>
<path d="M944.098 83.216C944.098 83.852 943.948 84.452 943.648 85.016C943.348 85.58 942.868 86.042 942.208 86.402C941.548 86.75 940.702 86.924 939.67 86.924H937.402V92H935.35V79.49H939.67C940.63 79.49 941.44 79.658 942.1 79.994C942.772 80.318 943.27 80.762 943.594 81.326C943.93 81.89 944.098 82.52 944.098 83.216ZM939.67 85.25C940.45 85.25 941.032 85.076 941.416 84.728C941.8 84.368 941.992 83.864 941.992 83.216C941.992 81.848 941.218 81.164 939.67 81.164H937.402V85.25H939.67ZM945.371 86.996C945.371 86 945.575 85.118 945.983 84.35C946.403 83.582 946.967 82.988 947.675 82.568C948.395 82.136 949.187 81.92 950.051 81.92C950.831 81.92 951.509 82.076 952.085 82.388C952.673 82.688 953.141 83.066 953.489 83.522V82.082H955.559V92H953.489V90.524C953.141 90.992 952.667 91.382 952.067 91.694C951.467 92.006 950.783 92.162 950.015 92.162C949.163 92.162 948.383 91.946 947.675 91.514C946.967 91.07 946.403 90.458 945.983 89.678C945.575 88.886 945.371 87.992 945.371 86.996ZM953.489 87.032C953.489 86.348 953.345 85.754 953.057 85.25C952.781 84.746 952.415 84.362 951.959 84.098C951.503 83.834 951.011 83.702 950.483 83.702C949.955 83.702 949.463 83.834 949.007 84.098C948.551 84.35 948.179 84.728 947.891 85.232C947.615 85.724 947.477 86.312 947.477 86.996C947.477 87.68 947.615 88.28 947.891 88.796C948.179 89.312 948.551 89.708 949.007 89.984C949.475 90.248 949.967 90.38 950.483 90.38C951.011 90.38 951.503 90.248 951.959 89.984C952.415 89.72 952.781 89.336 953.057 88.832C953.345 88.316 953.489 87.716 953.489 87.032ZM967.182 82.082L961.098 96.662H958.974L960.99 91.838L957.084 82.082H959.37L962.16 89.642L965.058 82.082H967.182ZM980.737 81.92C981.517 81.92 982.213 82.082 982.825 82.406C983.449 82.73 983.935 83.21 984.283 83.846C984.643 84.482 984.823 85.25 984.823 86.15V92H982.789V86.456C982.789 85.568 982.567 84.89 982.123 84.422C981.679 83.942 981.073 83.702 980.305 83.702C979.537 83.702 978.925 83.942 978.469 84.422C978.025 84.89 977.803 85.568 977.803 86.456V92H975.769V86.456C975.769 85.568 975.547 84.89 975.103 84.422C974.659 83.942 974.053 83.702 973.285 83.702C972.517 83.702 971.905 83.942 971.449 84.422C971.005 84.89 970.783 85.568 970.783 86.456V92H968.731V82.082H970.783V83.216C971.119 82.808 971.545 82.49 972.061 82.262C972.577 82.034 973.129 81.92 973.717 81.92C974.509 81.92 975.217 82.088 975.841 82.424C976.465 82.76 976.945 83.246 977.281 83.882C977.581 83.282 978.049 82.808 978.685 82.46C979.321 82.1 980.005 81.92 980.737 81.92ZM996.524 86.798C996.524 87.17 996.5 87.506 996.452 87.806H988.874C988.934 88.598 989.228 89.234 989.756 89.714C990.284 90.194 990.932 90.434 991.7 90.434C992.804 90.434 993.584 89.972 994.04 89.048H996.254C995.954 89.96 995.408 90.71 994.616 91.298C993.836 91.874 992.864 92.162 991.7 92.162C990.752 92.162 989.9 91.952 989.144 91.532C988.4 91.1 987.812 90.5 987.38 89.732C986.96 88.952 986.75 88.052 986.75 87.032C986.75 86.012 986.954 85.118 987.362 84.35C987.782 83.57 988.364 82.97 989.108 82.55C989.864 82.13 990.728 81.92 991.7 81.92C992.636 81.92 993.47 82.124 994.202 82.532C994.934 82.94 995.504 83.516 995.912 84.26C996.32 84.992 996.524 85.838 996.524 86.798ZM994.382 86.15C994.37 85.394 994.1 84.788 993.572 84.332C993.044 83.876 992.39 83.648 991.61 83.648C990.902 83.648 990.296 83.876 989.792 84.332C989.288 84.776 988.988 85.382 988.892 86.15H994.382ZM1003.55 81.92C1004.33 81.92 1005.02 82.082 1005.64 82.406C1006.26 82.73 1006.75 83.21 1007.09 83.846C1007.44 84.482 1007.62 85.25 1007.62 86.15V92H1005.58V86.456C1005.58 85.568 1005.36 84.89 1004.92 84.422C1004.47 83.942 1003.87 83.702 1003.1 83.702C1002.33 83.702 1001.72 83.942 1001.26 84.422C1000.82 84.89 1000.6 85.568 1000.6 86.456V92H998.543V82.082H1000.6V83.216C1000.93 82.808 1001.36 82.49 1001.87 82.262C1002.4 82.034 1002.96 81.92 1003.55 81.92ZM1012.63 83.756V89.246C1012.63 89.618 1012.71 89.888 1012.88 90.056C1013.06 90.212 1013.36 90.29 1013.78 90.29H1015.04V92H1013.42C1012.49 92 1011.79 91.784 1011.29 91.352C1010.8 90.92 1010.56 90.218 1010.56 89.246V83.756H1009.39V82.082H1010.56V79.616H1012.63V82.082H1015.04V83.756H1012.63Z" fill="#ADBDCC"/>
<path d="M6.33411 67.098C5.69011 67.098 5.11144 66.986 4.59811 66.762C4.09411 66.5287 3.69744 66.2113 3.40811 65.81C3.11878 65.3993 2.96944 64.928 2.96011 64.396H4.31811C4.36478 64.8533 4.55144 65.2407 4.87811 65.558C5.21411 65.866 5.69944 66.02 6.33411 66.02C6.94078 66.02 7.41678 65.8707 7.76211 65.572C8.11678 65.264 8.29411 64.872 8.29411 64.396C8.29411 64.0227 8.19144 63.7193 7.98611 63.486C7.78078 63.2527 7.52411 63.0753 7.21611 62.954C6.90811 62.8327 6.49278 62.702 5.97011 62.562C5.32611 62.394 4.80811 62.226 4.41611 62.058C4.03344 61.89 3.70211 61.6287 3.42211 61.274C3.15144 60.91 3.01611 60.4247 3.01611 59.818C3.01611 59.286 3.15144 58.8147 3.42211 58.404C3.69278 57.9933 4.07078 57.676 4.55611 57.452C5.05078 57.228 5.61544 57.116 6.25011 57.116C7.16478 57.116 7.91144 57.3447 8.49011 57.802C9.07811 58.2593 9.40944 58.866 9.48411 59.622H8.08411C8.03744 59.2487 7.84144 58.922 7.49611 58.642C7.15078 58.3527 6.69344 58.208 6.12411 58.208C5.59211 58.208 5.15811 58.348 4.82211 58.628C4.48611 58.8987 4.31811 59.2813 4.31811 59.776C4.31811 60.1307 4.41611 60.42 4.61211 60.644C4.81744 60.868 5.06478 61.0407 5.35411 61.162C5.65278 61.274 6.06811 61.4047 6.60011 61.554C7.24411 61.7313 7.76211 61.9087 8.15411 62.086C8.54611 62.254 8.88211 62.52 9.16211 62.884C9.44211 63.2387 9.58211 63.724 9.58211 64.34C9.58211 64.816 9.45611 65.264 9.20411 65.684C8.95211 66.104 8.57878 66.4447 8.08411 66.706C7.58944 66.9673 7.00611 67.098 6.33411 67.098ZM13.0109 60.378V64.9C13.0109 65.2733 13.0902 65.5393 13.2489 65.698C13.4076 65.8473 13.6829 65.922 14.0749 65.922H15.0129V67H13.8649C13.1556 67 12.6236 66.8367 12.2689 66.51C11.9142 66.1833 11.7369 65.6467 11.7369 64.9V60.378H10.7429V59.328H11.7369V57.396H13.0109V59.328H15.0129V60.378H13.0109ZM23.5565 62.87C23.5565 63.1127 23.5425 63.3693 23.5145 63.64H17.3825C17.4292 64.396 17.6858 64.9887 18.1525 65.418C18.6285 65.838 19.2025 66.048 19.8745 66.048C20.4252 66.048 20.8825 65.922 21.2465 65.67C21.6198 65.4087 21.8812 65.0633 22.0305 64.634H23.4025C23.1972 65.3713 22.7865 65.9733 22.1705 66.44C21.5545 66.8973 20.7892 67.126 19.8745 67.126C19.1465 67.126 18.4932 66.9627 17.9145 66.636C17.3452 66.3093 16.8972 65.8473 16.5705 65.25C16.2438 64.6433 16.0805 63.9433 16.0805 63.15C16.0805 62.3567 16.2392 61.6613 16.5565 61.064C16.8738 60.4667 17.3172 60.0093 17.8865 59.692C18.4652 59.3653 19.1278 59.202 19.8745 59.202C20.6025 59.202 21.2465 59.3607 21.8065 59.678C22.3665 59.9953 22.7958 60.434 23.0945 60.994C23.4025 61.5447 23.5565 62.17 23.5565 62.87ZM22.2405 62.604C22.2405 62.1187 22.1332 61.7033 21.9185 61.358C21.7038 61.0033 21.4098 60.7373 21.0365 60.56C20.6725 60.3733 20.2665 60.28 19.8185 60.28C19.1745 60.28 18.6238 60.4853 18.1665 60.896C17.7185 61.3067 17.4618 61.876 17.3965 62.604H22.2405ZM26.5122 60.742C26.7642 60.3033 27.1375 59.9393 27.6322 59.65C28.1362 59.3513 28.7195 59.202 29.3822 59.202C30.0635 59.202 30.6795 59.3653 31.2302 59.692C31.7902 60.0187 32.2288 60.4807 32.5462 61.078C32.8635 61.666 33.0222 62.352 33.0222 63.136C33.0222 63.9107 32.8635 64.6013 32.5462 65.208C32.2288 65.8147 31.7902 66.286 31.2302 66.622C30.6795 66.958 30.0635 67.126 29.3822 67.126C28.7288 67.126 28.1502 66.9813 27.6462 66.692C27.1515 66.3933 26.7735 66.0247 26.5122 65.586V70.64H25.2382V59.328H26.5122V60.742ZM31.7202 63.136C31.7202 62.5573 31.6035 62.0533 31.3702 61.624C31.1368 61.1947 30.8195 60.868 30.4182 60.644C30.0262 60.42 29.5922 60.308 29.1162 60.308C28.6495 60.308 28.2155 60.4247 27.8142 60.658C27.4222 60.882 27.1048 61.2133 26.8622 61.652C26.6288 62.0813 26.5122 62.5807 26.5122 63.15C26.5122 63.7287 26.6288 64.2373 26.8622 64.676C27.1048 65.1053 27.4222 65.4367 27.8142 65.67C28.2155 65.894 28.6495 66.006 29.1162 66.006C29.5922 66.006 30.0262 65.894 30.4182 65.67C30.8195 65.4367 31.1368 65.1053 31.3702 64.676C31.6035 64.2373 31.7202 63.724 31.7202 63.136ZM37.8855 58.04V56.878H40.5175V67H39.2295V58.04H37.8855Z" fill="#738496"/>
<path d="M472.172 67.098C471.528 67.098 470.949 66.986 470.436 66.762C469.932 66.5287 469.535 66.2113 469.246 65.81C468.957 65.3993 468.807 64.928 468.798 64.396H470.156C470.203 64.8533 470.389 65.2407 470.716 65.558C471.052 65.866 471.537 66.02 472.172 66.02C472.779 66.02 473.255 65.8707 473.6 65.572C473.955 65.264 474.132 64.872 474.132 64.396C474.132 64.0227 474.029 63.7193 473.824 63.486C473.619 63.2527 473.362 63.0753 473.054 62.954C472.746 62.8327 472.331 62.702 471.808 62.562C471.164 62.394 470.646 62.226 470.254 62.058C469.871 61.89 469.54 61.6287 469.26 61.274C468.989 60.91 468.854 60.4247 468.854 59.818C468.854 59.286 468.989 58.8147 469.26 58.404C469.531 57.9933 469.909 57.676 470.394 57.452C470.889 57.228 471.453 57.116 472.088 57.116C473.003 57.116 473.749 57.3447 474.328 57.802C474.916 58.2593 475.247 58.866 475.322 59.622H473.922C473.875 59.2487 473.679 58.922 473.334 58.642C472.989 58.3527 472.531 58.208 471.962 58.208C471.43 58.208 470.996 58.348 470.66 58.628C470.324 58.8987 470.156 59.2813 470.156 59.776C470.156 60.1307 470.254 60.42 470.45 60.644C470.655 60.868 470.903 61.0407 471.192 61.162C471.491 61.274 471.906 61.4047 472.438 61.554C473.082 61.7313 473.6 61.9087 473.992 62.086C474.384 62.254 474.72 62.52 475 62.884C475.28 63.2387 475.42 63.724 475.42 64.34C475.42 64.816 475.294 65.264 475.042 65.684C474.79 66.104 474.417 66.4447 473.922 66.706C473.427 66.9673 472.844 67.098 472.172 67.098ZM478.849 60.378V64.9C478.849 65.2733 478.928 65.5393 479.087 65.698C479.245 65.8473 479.521 65.922 479.913 65.922H480.851V67H479.703C478.993 67 478.461 66.8367 478.107 66.51C477.752 66.1833 477.575 65.6467 477.575 64.9V60.378H476.581V59.328H477.575V57.396H478.849V59.328H480.851V60.378H478.849ZM489.394 62.87C489.394 63.1127 489.38 63.3693 489.352 63.64H483.22C483.267 64.396 483.524 64.9887 483.99 65.418C484.466 65.838 485.04 66.048 485.712 66.048C486.263 66.048 486.72 65.922 487.084 65.67C487.458 65.4087 487.719 65.0633 487.868 64.634H489.24C489.035 65.3713 488.624 65.9733 488.008 66.44C487.392 66.8973 486.627 67.126 485.712 67.126C484.984 67.126 484.331 66.9627 483.752 66.636C483.183 66.3093 482.735 65.8473 482.408 65.25C482.082 64.6433 481.918 63.9433 481.918 63.15C481.918 62.3567 482.077 61.6613 482.394 61.064C482.712 60.4667 483.155 60.0093 483.724 59.692C484.303 59.3653 484.966 59.202 485.712 59.202C486.44 59.202 487.084 59.3607 487.644 59.678C488.204 59.9953 488.634 60.434 488.932 60.994C489.24 61.5447 489.394 62.17 489.394 62.87ZM488.078 62.604C488.078 62.1187 487.971 61.7033 487.756 61.358C487.542 61.0033 487.248 60.7373 486.874 60.56C486.51 60.3733 486.104 60.28 485.656 60.28C485.012 60.28 484.462 60.4853 484.004 60.896C483.556 61.3067 483.3 61.876 483.234 62.604H488.078ZM492.35 60.742C492.602 60.3033 492.975 59.9393 493.47 59.65C493.974 59.3513 494.557 59.202 495.22 59.202C495.901 59.202 496.517 59.3653 497.068 59.692C497.628 60.0187 498.067 60.4807 498.384 61.078C498.701 61.666 498.86 62.352 498.86 63.136C498.86 63.9107 498.701 64.6013 498.384 65.208C498.067 65.8147 497.628 66.286 497.068 66.622C496.517 66.958 495.901 67.126 495.22 67.126C494.567 67.126 493.988 66.9813 493.484 66.692C492.989 66.3933 492.611 66.0247 492.35 65.586V70.64H491.076V59.328H492.35V60.742ZM497.558 63.136C497.558 62.5573 497.441 62.0533 497.208 61.624C496.975 61.1947 496.657 60.868 496.256 60.644C495.864 60.42 495.43 60.308 494.954 60.308C494.487 60.308 494.053 60.4247 493.652 60.658C493.26 60.882 492.943 61.2133 492.7 61.652C492.467 62.0813 492.35 62.5807 492.35 63.15C492.35 63.7287 492.467 64.2373 492.7 64.676C492.943 65.1053 493.26 65.4367 493.652 65.67C494.053 65.894 494.487 66.006 494.954 66.006C495.43 66.006 495.864 65.894 496.256 65.67C496.657 65.4367 496.975 65.1053 497.208 64.676C497.441 64.2373 497.558 63.724 497.558 63.136ZM503.905 65.978C505.091 65.026 506.019 64.2467 506.691 63.64C507.363 63.024 507.928 62.3847 508.385 61.722C508.852 61.05 509.085 60.392 509.085 59.748C509.085 59.1413 508.936 58.6653 508.637 58.32C508.348 57.9653 507.877 57.788 507.223 57.788C506.589 57.788 506.094 57.9887 505.739 58.39C505.394 58.782 505.207 59.3093 505.179 59.972H503.947C503.985 58.9267 504.302 58.1193 504.899 57.55C505.497 56.9807 506.267 56.696 507.209 56.696C508.171 56.696 508.931 56.962 509.491 57.494C510.061 58.026 510.345 58.7587 510.345 59.692C510.345 60.4667 510.112 61.2227 509.645 61.96C509.188 62.688 508.665 63.332 508.077 63.892C507.489 64.4427 506.738 65.0867 505.823 65.824H510.639V66.888H503.905V65.978Z" fill="#ADBDCC"/>
<path d="M938.172 67.098C937.528 67.098 936.949 66.986 936.436 66.762C935.932 66.5287 935.535 66.2113 935.246 65.81C934.957 65.3993 934.807 64.928 934.798 64.396H936.156C936.203 64.8533 936.389 65.2407 936.716 65.558C937.052 65.866 937.537 66.02 938.172 66.02C938.779 66.02 939.255 65.8707 939.6 65.572C939.955 65.264 940.132 64.872 940.132 64.396C940.132 64.0227 940.029 63.7193 939.824 63.486C939.619 63.2527 939.362 63.0753 939.054 62.954C938.746 62.8327 938.331 62.702 937.808 62.562C937.164 62.394 936.646 62.226 936.254 62.058C935.871 61.89 935.54 61.6287 935.26 61.274C934.989 60.91 934.854 60.4247 934.854 59.818C934.854 59.286 934.989 58.8147 935.26 58.404C935.531 57.9933 935.909 57.676 936.394 57.452C936.889 57.228 937.453 57.116 938.088 57.116C939.003 57.116 939.749 57.3447 940.328 57.802C940.916 58.2593 941.247 58.866 941.322 59.622H939.922C939.875 59.2487 939.679 58.922 939.334 58.642C938.989 58.3527 938.531 58.208 937.962 58.208C937.43 58.208 936.996 58.348 936.66 58.628C936.324 58.8987 936.156 59.2813 936.156 59.776C936.156 60.1307 936.254 60.42 936.45 60.644C936.655 60.868 936.903 61.0407 937.192 61.162C937.491 61.274 937.906 61.4047 938.438 61.554C939.082 61.7313 939.6 61.9087 939.992 62.086C940.384 62.254 940.72 62.52 941 62.884C941.28 63.2387 941.42 63.724 941.42 64.34C941.42 64.816 941.294 65.264 941.042 65.684C940.79 66.104 940.417 66.4447 939.922 66.706C939.427 66.9673 938.844 67.098 938.172 67.098ZM944.849 60.378V64.9C944.849 65.2733 944.928 65.5393 945.087 65.698C945.245 65.8473 945.521 65.922 945.913 65.922H946.851V67H945.703C944.993 67 944.461 66.8367 944.107 66.51C943.752 66.1833 943.575 65.6467 943.575 64.9V60.378H942.581V59.328H943.575V57.396H944.849V59.328H946.851V60.378H944.849ZM955.394 62.87C955.394 63.1127 955.38 63.3693 955.352 63.64H949.22C949.267 64.396 949.524 64.9887 949.99 65.418C950.466 65.838 951.04 66.048 951.712 66.048C952.263 66.048 952.72 65.922 953.084 65.67C953.458 65.4087 953.719 65.0633 953.868 64.634H955.24C955.035 65.3713 954.624 65.9733 954.008 66.44C953.392 66.8973 952.627 67.126 951.712 67.126C950.984 67.126 950.331 66.9627 949.752 66.636C949.183 66.3093 948.735 65.8473 948.408 65.25C948.082 64.6433 947.918 63.9433 947.918 63.15C947.918 62.3567 948.077 61.6613 948.394 61.064C948.712 60.4667 949.155 60.0093 949.724 59.692C950.303 59.3653 950.966 59.202 951.712 59.202C952.44 59.202 953.084 59.3607 953.644 59.678C954.204 59.9953 954.634 60.434 954.932 60.994C955.24 61.5447 955.394 62.17 955.394 62.87ZM954.078 62.604C954.078 62.1187 953.971 61.7033 953.756 61.358C953.542 61.0033 953.248 60.7373 952.874 60.56C952.51 60.3733 952.104 60.28 951.656 60.28C951.012 60.28 950.462 60.4853 950.004 60.896C949.556 61.3067 949.3 61.876 949.234 62.604H954.078ZM958.35 60.742C958.602 60.3033 958.975 59.9393 959.47 59.65C959.974 59.3513 960.557 59.202 961.22 59.202C961.901 59.202 962.517 59.3653 963.068 59.692C963.628 60.0187 964.067 60.4807 964.384 61.078C964.701 61.666 964.86 62.352 964.86 63.136C964.86 63.9107 964.701 64.6013 964.384 65.208C964.067 65.8147 963.628 66.286 963.068 66.622C962.517 66.958 961.901 67.126 961.22 67.126C960.567 67.126 959.988 66.9813 959.484 66.692C958.989 66.3933 958.611 66.0247 958.35 65.586V70.64H957.076V59.328H958.35V60.742ZM963.558 63.136C963.558 62.5573 963.441 62.0533 963.208 61.624C962.975 61.1947 962.657 60.868 962.256 60.644C961.864 60.42 961.43 60.308 960.954 60.308C960.487 60.308 960.053 60.4247 959.652 60.658C959.26 60.882 958.943 61.2133 958.7 61.652C958.467 62.0813 958.35 62.5807 958.35 63.15C958.35 63.7287 958.467 64.2373 958.7 64.676C958.943 65.1053 959.26 65.4367 959.652 65.67C960.053 65.894 960.487 66.006 960.954 66.006C961.43 66.006 961.864 65.894 962.256 65.67C962.657 65.4367 962.975 65.1053 963.208 64.676C963.441 64.2373 963.558 63.724 963.558 63.136ZM970.031 59.426C970.097 58.5673 970.428 57.8953 971.025 57.41C971.623 56.9247 972.397 56.682 973.349 56.682C973.984 56.682 974.53 56.7987 974.987 57.032C975.454 57.256 975.804 57.564 976.037 57.956C976.28 58.348 976.401 58.7913 976.401 59.286C976.401 59.8647 976.233 60.364 975.897 60.784C975.571 61.204 975.141 61.4747 974.609 61.596V61.666C975.216 61.8153 975.697 62.1093 976.051 62.548C976.406 62.9867 976.583 63.5607 976.583 64.27C976.583 64.802 976.462 65.2827 976.219 65.712C975.977 66.132 975.613 66.4633 975.127 66.706C974.642 66.9487 974.059 67.07 973.377 67.07C972.388 67.07 971.576 66.8133 970.941 66.3C970.307 65.7773 969.952 65.04 969.877 64.088H971.109C971.175 64.648 971.403 65.1053 971.795 65.46C972.187 65.8147 972.71 65.992 973.363 65.992C974.017 65.992 974.511 65.824 974.847 65.488C975.193 65.1427 975.365 64.6993 975.365 64.158C975.365 63.458 975.132 62.954 974.665 62.646C974.199 62.338 973.494 62.184 972.551 62.184H972.229V61.12H972.565C973.424 61.1107 974.073 60.9707 974.511 60.7C974.95 60.42 975.169 59.9907 975.169 59.412C975.169 58.9173 975.006 58.5207 974.679 58.222C974.362 57.9233 973.905 57.774 973.307 57.774C972.729 57.774 972.262 57.9233 971.907 58.222C971.553 58.5207 971.343 58.922 971.277 59.426H970.031Z" fill="#ADBDCC"/>
<defs>
<linearGradient id="paint0_linear_202_7708" x1="22" y1="19" x2="273.041" y2="19" gradientUnits="userSpaceOnUse">
<stop stop-color="#2694B7"/>
<stop offset="1" stop-color="#DEE2E6"/>
</linearGradient>
</defs>
</svg>
