<svg width="1014" height="97" viewBox="0 0 1014 97" fill="none" xmlns="http://www.w3.org/2000/svg">
<line x1="485" y1="17.5" x2="951" y2="17.5" stroke="#2694B7" stroke-width="3"/>
<line x1="20" y1="17.5" x2="484" y2="17.5" stroke="url(#paint0_linear_202_8512)" stroke-width="3"/>
<path d="M934.302 1.5C931.172 1.5 928.997 4.61782 930.08 7.55567L938.922 31.5557C939.574 33.3248 941.259 34.5 943.144 34.5H967.698C970.828 34.5 973.003 31.3822 971.92 28.4443L963.078 4.44433C962.426 2.67525 960.741 1.5 958.856 1.5H934.302Z" fill="#F6F9FC" stroke="#CCE5EE" stroke-width="3"/>
<path d="M3.43179 8.00901C2.73403 6.05528 4.18242 4 6.25701 4H27.8858C29.1537 4 30.2846 4.79701 30.7111 5.99099L38.5682 27.991C39.266 29.9447 37.8176 32 35.743 32H14.1142C12.8463 32 11.7154 31.203 11.2889 30.009L3.43179 8.00901Z" fill="#2694B7"/>
<path d="M467.432 8.00901C466.734 6.05528 468.182 4 470.257 4H491.886C493.154 4 494.285 4.79701 494.711 5.99099L502.568 27.991C503.266 29.9447 501.818 32 499.743 32H478.114C476.846 32 475.715 31.203 475.289 30.009L467.432 8.00901Z" fill="#2694B7"/>
<path d="M933.903 7.84084C933.321 6.21273 934.528 4.5 936.257 4.5H957.886C958.942 4.5 959.885 5.16418 960.24 6.15916L968.097 28.1592C968.679 29.7873 967.472 31.5 965.743 31.5H944.114C943.058 31.5 942.115 30.8358 941.76 29.8408L933.903 7.84084Z" fill="#2694B7" stroke="#2694B7"/>
<path d="M8.046 85.574C8.718 85.694 9.288 86.048 9.756 86.636C10.224 87.224 10.458 87.89 10.458 88.634C10.458 89.27 10.29 89.846 9.954 90.362C9.63 90.866 9.156 91.268 8.532 91.568C7.908 91.856 7.182 92 6.354 92H1.35V79.49H6.12C6.972 79.49 7.704 79.634 8.316 79.922C8.928 80.21 9.39 80.6 9.702 81.092C10.014 81.572 10.17 82.112 10.17 82.712C10.17 83.432 9.978 84.032 9.594 84.512C9.21 84.992 8.694 85.346 8.046 85.574ZM3.402 84.746H5.94C6.612 84.746 7.134 84.596 7.506 84.296C7.89 83.984 8.082 83.54 8.082 82.964C8.082 82.4 7.89 81.962 7.506 81.65C7.134 81.326 6.612 81.164 5.94 81.164H3.402V84.746ZM6.174 90.326C6.87 90.326 7.416 90.158 7.812 89.822C8.208 89.486 8.406 89.018 8.406 88.418C8.406 87.806 8.196 87.32 7.776 86.96C7.356 86.6 6.798 86.42 6.102 86.42H3.402V90.326H6.174ZM12.0039 86.996C12.0039 86 12.2079 85.118 12.6159 84.35C13.0359 83.582 13.5999 82.988 14.3079 82.568C15.0279 82.136 15.8199 81.92 16.6839 81.92C17.4639 81.92 18.1419 82.076 18.7179 82.388C19.3059 82.688 19.7739 83.066 20.1219 83.522V82.082H22.1919V92H20.1219V90.524C19.7739 90.992 19.2999 91.382 18.6999 91.694C18.0999 92.006 17.4159 92.162 16.6479 92.162C15.7959 92.162 15.0159 91.946 14.3079 91.514C13.5999 91.07 13.0359 90.458 12.6159 89.678C12.2079 88.886 12.0039 87.992 12.0039 86.996ZM20.1219 87.032C20.1219 86.348 19.9779 85.754 19.6899 85.25C19.4139 84.746 19.0479 84.362 18.5919 84.098C18.1359 83.834 17.6439 83.702 17.1159 83.702C16.5879 83.702 16.0959 83.834 15.6399 84.098C15.1839 84.35 14.8119 84.728 14.5239 85.232C14.2479 85.724 14.1099 86.312 14.1099 86.996C14.1099 87.68 14.2479 88.28 14.5239 88.796C14.8119 89.312 15.1839 89.708 15.6399 89.984C16.1079 90.248 16.5999 90.38 17.1159 90.38C17.6439 90.38 18.1359 90.248 18.5919 89.984C19.0479 89.72 19.4139 89.336 19.6899 88.832C19.9779 88.316 20.1219 87.716 20.1219 87.032ZM28.4871 92.162C27.7071 92.162 27.0051 92.024 26.3811 91.748C25.7691 91.46 25.2831 91.076 24.9231 90.596C24.5631 90.104 24.3711 89.558 24.3471 88.958H26.4711C26.5071 89.378 26.7051 89.732 27.0651 90.02C27.4371 90.296 27.8991 90.434 28.4511 90.434C29.0271 90.434 29.4711 90.326 29.7831 90.11C30.1071 89.882 30.2691 89.594 30.2691 89.246C30.2691 88.874 30.0891 88.598 29.7291 88.418C29.3811 88.238 28.8231 88.04 28.0551 87.824C27.3111 87.62 26.7051 87.422 26.2371 87.23C25.7691 87.038 25.3611 86.744 25.0131 86.348C24.6771 85.952 24.5091 85.43 24.5091 84.782C24.5091 84.254 24.6651 83.774 24.9771 83.342C25.2891 82.898 25.7331 82.55 26.3091 82.298C26.8971 82.046 27.5691 81.92 28.3251 81.92C29.4531 81.92 30.3591 82.208 31.0431 82.784C31.7391 83.348 32.1111 84.122 32.1591 85.106H30.1071C30.0711 84.662 29.8911 84.308 29.5671 84.044C29.2431 83.78 28.8051 83.648 28.2531 83.648C27.7131 83.648 27.2991 83.75 27.0111 83.954C26.7231 84.158 26.5791 84.428 26.5791 84.764C26.5791 85.028 26.6751 85.25 26.8671 85.43C27.0591 85.61 27.2931 85.754 27.5691 85.862C27.8451 85.958 28.2531 86.084 28.7931 86.24C29.5131 86.432 30.1011 86.63 30.5571 86.834C31.0251 87.026 31.4271 87.314 31.7631 87.698C32.0991 88.082 32.2731 88.592 32.2851 89.228C32.2851 89.792 32.1291 90.296 31.8171 90.74C31.5051 91.184 31.0611 91.532 30.4851 91.784C29.9211 92.036 29.2551 92.162 28.4871 92.162ZM35.5463 80.768C35.1743 80.768 34.8623 80.642 34.6103 80.39C34.3583 80.138 34.2323 79.826 34.2323 79.454C34.2323 79.082 34.3583 78.77 34.6103 78.518C34.8623 78.266 35.1743 78.14 35.5463 78.14C35.9063 78.14 36.2123 78.266 36.4643 78.518C36.7163 78.77 36.8423 79.082 36.8423 79.454C36.8423 79.826 36.7163 80.138 36.4643 80.39C36.2123 80.642 35.9063 80.768 35.5463 80.768ZM36.5543 82.082V92H34.5023V82.082H36.5543ZM38.5644 87.032C38.5644 86.012 38.7684 85.118 39.1764 84.35C39.5964 83.57 40.1724 82.97 40.9044 82.55C41.6364 82.13 42.4764 81.92 43.4244 81.92C44.6244 81.92 45.6144 82.208 46.3944 82.784C47.1864 83.348 47.7204 84.158 47.9964 85.214H45.7824C45.6024 84.722 45.3144 84.338 44.9184 84.062C44.5224 83.786 44.0244 83.648 43.4244 83.648C42.5844 83.648 41.9124 83.948 41.4084 84.548C40.9164 85.136 40.6704 85.964 40.6704 87.032C40.6704 88.1 40.9164 88.934 41.4084 89.534C41.9124 90.134 42.5844 90.434 43.4244 90.434C44.6124 90.434 45.3984 89.912 45.7824 88.868H47.9964C47.7084 89.876 47.1684 90.68 46.3764 91.28C45.5844 91.868 44.6004 92.162 43.4244 92.162C42.4764 92.162 41.6364 91.952 40.9044 91.532C40.1724 91.1 39.5964 90.5 39.1764 89.732C38.7684 88.952 38.5644 88.052 38.5644 87.032ZM56.7692 79.49V92H54.7172V79.49H56.7692ZM64.4673 81.92C65.2473 81.92 65.9433 82.082 66.5553 82.406C67.1793 82.73 67.6653 83.21 68.0133 83.846C68.3613 84.482 68.5353 85.25 68.5353 86.15V92H66.5013V86.456C66.5013 85.568 66.2793 84.89 65.8353 84.422C65.3913 83.942 64.7853 83.702 64.0173 83.702C63.2493 83.702 62.6373 83.942 62.1813 84.422C61.7373 84.89 61.5153 85.568 61.5153 86.456V92H59.4633V82.082H61.5153V83.216C61.8513 82.808 62.2773 82.49 62.7933 82.262C63.3213 82.034 63.8793 81.92 64.4673 81.92ZM75.3107 83.756H73.4747V92H71.4047V83.756H70.2347V82.082H71.4047V81.38C71.4047 80.24 71.7047 79.412 72.3047 78.896C72.9167 78.368 73.8707 78.104 75.1667 78.104V79.814C74.5427 79.814 74.1047 79.934 73.8527 80.174C73.6007 80.402 73.4747 80.804 73.4747 81.38V82.082H75.3107V83.756ZM81.4313 92.162C80.4953 92.162 79.6493 91.952 78.8933 91.532C78.1373 91.1 77.5433 90.5 77.1113 89.732C76.6793 88.952 76.4633 88.052 76.4633 87.032C76.4633 86.024 76.6853 85.13 77.1293 84.35C77.5733 83.57 78.1793 82.97 78.9473 82.55C79.7153 82.13 80.5733 81.92 81.5213 81.92C82.4693 81.92 83.3273 82.13 84.0953 82.55C84.8633 82.97 85.4693 83.57 85.9133 84.35C86.3573 85.13 86.5793 86.024 86.5793 87.032C86.5793 88.04 86.3513 88.934 85.8953 89.714C85.4393 90.494 84.8153 91.1 84.0233 91.532C83.2433 91.952 82.3793 92.162 81.4313 92.162ZM81.4313 90.38C81.9593 90.38 82.4513 90.254 82.9073 90.002C83.3753 89.75 83.7533 89.372 84.0413 88.868C84.3293 88.364 84.4733 87.752 84.4733 87.032C84.4733 86.312 84.3353 85.706 84.0593 85.214C83.7833 84.71 83.4173 84.332 82.9613 84.08C82.5053 83.828 82.0133 83.702 81.4853 83.702C80.9573 83.702 80.4653 83.828 80.0093 84.08C79.5653 84.332 79.2113 84.71 78.9473 85.214C78.6833 85.706 78.5513 86.312 78.5513 87.032C78.5513 88.1 78.8213 88.928 79.3613 89.516C79.9133 90.092 80.6033 90.38 81.4313 90.38Z" fill="#ADBDCC"/>
<path d="M466.666 85.718C466.666 84.494 466.948 83.396 467.512 82.424C468.088 81.452 468.862 80.696 469.834 80.156C470.818 79.604 471.892 79.328 473.056 79.328C474.388 79.328 475.57 79.658 476.602 80.318C477.646 80.966 478.402 81.89 478.87 83.09H476.404C476.08 82.43 475.63 81.938 475.054 81.614C474.478 81.29 473.812 81.128 473.056 81.128C472.228 81.128 471.49 81.314 470.842 81.686C470.194 82.058 469.684 82.592 469.312 83.288C468.952 83.984 468.772 84.794 468.772 85.718C468.772 86.642 468.952 87.452 469.312 88.148C469.684 88.844 470.194 89.384 470.842 89.768C471.49 90.14 472.228 90.326 473.056 90.326C473.812 90.326 474.478 90.164 475.054 89.84C475.63 89.516 476.08 89.024 476.404 88.364H478.87C478.402 89.564 477.646 90.488 476.602 91.136C475.57 91.784 474.388 92.108 473.056 92.108C471.88 92.108 470.806 91.838 469.834 91.298C468.862 90.746 468.088 89.984 467.512 89.012C466.948 88.04 466.666 86.942 466.666 85.718ZM480.588 86.996C480.588 86 480.792 85.118 481.2 84.35C481.62 83.582 482.184 82.988 482.892 82.568C483.612 82.136 484.404 81.92 485.268 81.92C486.048 81.92 486.726 82.076 487.302 82.388C487.89 82.688 488.358 83.066 488.706 83.522V82.082H490.776V92H488.706V90.524C488.358 90.992 487.884 91.382 487.284 91.694C486.684 92.006 486 92.162 485.232 92.162C484.38 92.162 483.6 91.946 482.892 91.514C482.184 91.07 481.62 90.458 481.2 89.678C480.792 88.886 480.588 87.992 480.588 86.996ZM488.706 87.032C488.706 86.348 488.562 85.754 488.274 85.25C487.998 84.746 487.632 84.362 487.176 84.098C486.72 83.834 486.228 83.702 485.7 83.702C485.172 83.702 484.68 83.834 484.224 84.098C483.768 84.35 483.396 84.728 483.108 85.232C482.832 85.724 482.694 86.312 482.694 86.996C482.694 87.68 482.832 88.28 483.108 88.796C483.396 89.312 483.768 89.708 484.224 89.984C484.692 90.248 485.184 90.38 485.7 90.38C486.228 90.38 486.72 90.248 487.176 89.984C487.632 89.72 487.998 89.336 488.274 88.832C488.562 88.316 488.706 87.716 488.706 87.032ZM495.523 83.522C495.823 83.018 496.219 82.628 496.711 82.352C497.215 82.064 497.809 81.92 498.493 81.92V84.044H497.971C497.167 84.044 496.555 84.248 496.135 84.656C495.727 85.064 495.523 85.772 495.523 86.78V92H493.471V82.082H495.523V83.522ZM504.371 85.718C504.371 84.494 504.653 83.396 505.217 82.424C505.793 81.452 506.567 80.696 507.539 80.156C508.523 79.604 509.597 79.328 510.761 79.328C512.093 79.328 513.275 79.658 514.307 80.318C515.351 80.966 516.107 81.89 516.575 83.09H514.109C513.785 82.43 513.335 81.938 512.759 81.614C512.183 81.29 511.517 81.128 510.761 81.128C509.933 81.128 509.195 81.314 508.547 81.686C507.899 82.058 507.389 82.592 507.017 83.288C506.657 83.984 506.477 84.794 506.477 85.718C506.477 86.642 506.657 87.452 507.017 88.148C507.389 88.844 507.899 89.384 508.547 89.768C509.195 90.14 509.933 90.326 510.761 90.326C511.517 90.326 512.183 90.164 512.759 89.84C513.335 89.516 513.785 89.024 514.109 88.364H516.575C516.107 89.564 515.351 90.488 514.307 91.136C513.275 91.784 512.093 92.108 510.761 92.108C509.585 92.108 508.511 91.838 507.539 91.298C506.567 90.746 505.793 89.984 505.217 89.012C504.653 88.04 504.371 86.942 504.371 85.718ZM524.107 81.92C524.863 81.92 525.535 82.082 526.123 82.406C526.723 82.73 527.191 83.21 527.527 83.846C527.875 84.482 528.049 85.25 528.049 86.15V92H526.015V86.456C526.015 85.568 525.793 84.89 525.349 84.422C524.905 83.942 524.299 83.702 523.531 83.702C522.763 83.702 522.151 83.942 521.695 84.422C521.251 84.89 521.029 85.568 521.029 86.456V92H518.977V78.68H521.029V83.234C521.377 82.814 521.815 82.49 522.343 82.262C522.883 82.034 523.471 81.92 524.107 81.92ZM534.968 92.162C534.032 92.162 533.186 91.952 532.43 91.532C531.674 91.1 531.08 90.5 530.648 89.732C530.216 88.952 530 88.052 530 87.032C530 86.024 530.222 85.13 530.666 84.35C531.11 83.57 531.716 82.97 532.484 82.55C533.252 82.13 534.11 81.92 535.058 81.92C536.006 81.92 536.864 82.13 537.632 82.55C538.4 82.97 539.006 83.57 539.45 84.35C539.894 85.13 540.116 86.024 540.116 87.032C540.116 88.04 539.888 88.934 539.432 89.714C538.976 90.494 538.352 91.1 537.56 91.532C536.78 91.952 535.916 92.162 534.968 92.162ZM534.968 90.38C535.496 90.38 535.988 90.254 536.444 90.002C536.912 89.75 537.29 89.372 537.578 88.868C537.866 88.364 538.01 87.752 538.01 87.032C538.01 86.312 537.872 85.706 537.596 85.214C537.32 84.71 536.954 84.332 536.498 84.08C536.042 83.828 535.55 83.702 535.022 83.702C534.494 83.702 534.002 83.828 533.546 84.08C533.102 84.332 532.748 84.71 532.484 85.214C532.22 85.706 532.088 86.312 532.088 87.032C532.088 88.1 532.358 88.928 532.898 89.516C533.45 90.092 534.14 90.38 534.968 90.38ZM543.189 80.768C542.817 80.768 542.505 80.642 542.253 80.39C542.001 80.138 541.875 79.826 541.875 79.454C541.875 79.082 542.001 78.77 542.253 78.518C542.505 78.266 542.817 78.14 543.189 78.14C543.549 78.14 543.855 78.266 544.107 78.518C544.359 78.77 544.485 79.082 544.485 79.454C544.485 79.826 544.359 80.138 544.107 80.39C543.855 80.642 543.549 80.768 543.189 80.768ZM544.197 82.082V92H542.145V82.082H544.197ZM546.207 87.032C546.207 86.012 546.411 85.118 546.819 84.35C547.239 83.57 547.815 82.97 548.547 82.55C549.279 82.13 550.119 81.92 551.067 81.92C552.267 81.92 553.257 82.208 554.037 82.784C554.829 83.348 555.363 84.158 555.639 85.214H553.425C553.245 84.722 552.957 84.338 552.561 84.062C552.165 83.786 551.667 83.648 551.067 83.648C550.227 83.648 549.555 83.948 549.051 84.548C548.559 85.136 548.313 85.964 548.313 87.032C548.313 88.1 548.559 88.934 549.051 89.534C549.555 90.134 550.227 90.434 551.067 90.434C552.255 90.434 553.041 89.912 553.425 88.868H555.639C555.351 89.876 554.811 90.68 554.019 91.28C553.227 91.868 552.243 92.162 551.067 92.162C550.119 92.162 549.279 91.952 548.547 91.532C547.815 91.1 547.239 90.5 546.819 89.732C546.411 88.952 546.207 88.052 546.207 87.032ZM566.774 86.798C566.774 87.17 566.75 87.506 566.702 87.806H559.124C559.184 88.598 559.478 89.234 560.006 89.714C560.534 90.194 561.182 90.434 561.95 90.434C563.054 90.434 563.834 89.972 564.29 89.048H566.504C566.204 89.96 565.658 90.71 564.866 91.298C564.086 91.874 563.114 92.162 561.95 92.162C561.002 92.162 560.15 91.952 559.394 91.532C558.65 91.1 558.062 90.5 557.63 89.732C557.21 88.952 557 88.052 557 87.032C557 86.012 557.204 85.118 557.612 84.35C558.032 83.57 558.614 82.97 559.358 82.55C560.114 82.13 560.978 81.92 561.95 81.92C562.886 81.92 563.72 82.124 564.452 82.532C565.184 82.94 565.754 83.516 566.162 84.26C566.57 84.992 566.774 85.838 566.774 86.798ZM564.632 86.15C564.62 85.394 564.35 84.788 563.822 84.332C563.294 83.876 562.64 83.648 561.86 83.648C561.152 83.648 560.546 83.876 560.042 84.332C559.538 84.776 559.238 85.382 559.142 86.15H564.632Z" fill="#ADBDCC"/>
<path d="M942.098 83.216C942.098 83.852 941.948 84.452 941.648 85.016C941.348 85.58 940.868 86.042 940.208 86.402C939.548 86.75 938.702 86.924 937.67 86.924H935.402V92H933.35V79.49H937.67C938.63 79.49 939.44 79.658 940.1 79.994C940.772 80.318 941.27 80.762 941.594 81.326C941.93 81.89 942.098 82.52 942.098 83.216ZM937.67 85.25C938.45 85.25 939.032 85.076 939.416 84.728C939.8 84.368 939.992 83.864 939.992 83.216C939.992 81.848 939.218 81.164 937.67 81.164H935.402V85.25H937.67ZM943.371 86.996C943.371 86 943.575 85.118 943.983 84.35C944.403 83.582 944.967 82.988 945.675 82.568C946.395 82.136 947.187 81.92 948.051 81.92C948.831 81.92 949.509 82.076 950.085 82.388C950.673 82.688 951.141 83.066 951.489 83.522V82.082H953.559V92H951.489V90.524C951.141 90.992 950.667 91.382 950.067 91.694C949.467 92.006 948.783 92.162 948.015 92.162C947.163 92.162 946.383 91.946 945.675 91.514C944.967 91.07 944.403 90.458 943.983 89.678C943.575 88.886 943.371 87.992 943.371 86.996ZM951.489 87.032C951.489 86.348 951.345 85.754 951.057 85.25C950.781 84.746 950.415 84.362 949.959 84.098C949.503 83.834 949.011 83.702 948.483 83.702C947.955 83.702 947.463 83.834 947.007 84.098C946.551 84.35 946.179 84.728 945.891 85.232C945.615 85.724 945.477 86.312 945.477 86.996C945.477 87.68 945.615 88.28 945.891 88.796C946.179 89.312 946.551 89.708 947.007 89.984C947.475 90.248 947.967 90.38 948.483 90.38C949.011 90.38 949.503 90.248 949.959 89.984C950.415 89.72 950.781 89.336 951.057 88.832C951.345 88.316 951.489 87.716 951.489 87.032ZM965.182 82.082L959.098 96.662H956.974L958.99 91.838L955.084 82.082H957.37L960.16 89.642L963.058 82.082H965.182ZM978.737 81.92C979.517 81.92 980.213 82.082 980.825 82.406C981.449 82.73 981.935 83.21 982.283 83.846C982.643 84.482 982.823 85.25 982.823 86.15V92H980.789V86.456C980.789 85.568 980.567 84.89 980.123 84.422C979.679 83.942 979.073 83.702 978.305 83.702C977.537 83.702 976.925 83.942 976.469 84.422C976.025 84.89 975.803 85.568 975.803 86.456V92H973.769V86.456C973.769 85.568 973.547 84.89 973.103 84.422C972.659 83.942 972.053 83.702 971.285 83.702C970.517 83.702 969.905 83.942 969.449 84.422C969.005 84.89 968.783 85.568 968.783 86.456V92H966.731V82.082H968.783V83.216C969.119 82.808 969.545 82.49 970.061 82.262C970.577 82.034 971.129 81.92 971.717 81.92C972.509 81.92 973.217 82.088 973.841 82.424C974.465 82.76 974.945 83.246 975.281 83.882C975.581 83.282 976.049 82.808 976.685 82.46C977.321 82.1 978.005 81.92 978.737 81.92ZM994.524 86.798C994.524 87.17 994.5 87.506 994.452 87.806H986.874C986.934 88.598 987.228 89.234 987.756 89.714C988.284 90.194 988.932 90.434 989.7 90.434C990.804 90.434 991.584 89.972 992.04 89.048H994.254C993.954 89.96 993.408 90.71 992.616 91.298C991.836 91.874 990.864 92.162 989.7 92.162C988.752 92.162 987.9 91.952 987.144 91.532C986.4 91.1 985.812 90.5 985.38 89.732C984.96 88.952 984.75 88.052 984.75 87.032C984.75 86.012 984.954 85.118 985.362 84.35C985.782 83.57 986.364 82.97 987.108 82.55C987.864 82.13 988.728 81.92 989.7 81.92C990.636 81.92 991.47 82.124 992.202 82.532C992.934 82.94 993.504 83.516 993.912 84.26C994.32 84.992 994.524 85.838 994.524 86.798ZM992.382 86.15C992.37 85.394 992.1 84.788 991.572 84.332C991.044 83.876 990.39 83.648 989.61 83.648C988.902 83.648 988.296 83.876 987.792 84.332C987.288 84.776 986.988 85.382 986.892 86.15H992.382ZM1001.55 81.92C1002.33 81.92 1003.02 82.082 1003.64 82.406C1004.26 82.73 1004.75 83.21 1005.09 83.846C1005.44 84.482 1005.62 85.25 1005.62 86.15V92H1003.58V86.456C1003.58 85.568 1003.36 84.89 1002.92 84.422C1002.47 83.942 1001.87 83.702 1001.1 83.702C1000.33 83.702 999.717 83.942 999.261 84.422C998.817 84.89 998.595 85.568 998.595 86.456V92H996.543V82.082H998.595V83.216C998.931 82.808 999.357 82.49 999.873 82.262C1000.4 82.034 1000.96 81.92 1001.55 81.92ZM1010.63 83.756V89.246C1010.63 89.618 1010.71 89.888 1010.88 90.056C1011.06 90.212 1011.36 90.29 1011.78 90.29H1013.04V92H1011.42C1010.49 92 1009.79 91.784 1009.29 91.352C1008.8 90.92 1008.56 90.218 1008.56 89.246V83.756H1007.39V82.082H1008.56V79.616H1010.63V82.082H1013.04V83.756H1010.63Z" fill="#2694B7"/>
<path d="M4.33411 67.098C3.69011 67.098 3.11144 66.986 2.59811 66.762C2.09411 66.5287 1.69744 66.2113 1.40811 65.81C1.11878 65.3993 0.969443 64.928 0.960109 64.396H2.31811C2.36478 64.8533 2.55144 65.2407 2.87811 65.558C3.21411 65.866 3.69944 66.02 4.33411 66.02C4.94078 66.02 5.41678 65.8707 5.76211 65.572C6.11678 65.264 6.29411 64.872 6.29411 64.396C6.29411 64.0227 6.19144 63.7193 5.98611 63.486C5.78078 63.2527 5.52411 63.0753 5.21611 62.954C4.90811 62.8327 4.49278 62.702 3.97011 62.562C3.32611 62.394 2.80811 62.226 2.41611 62.058C2.03344 61.89 1.70211 61.6287 1.42211 61.274C1.15144 60.91 1.01611 60.4247 1.01611 59.818C1.01611 59.286 1.15144 58.8147 1.42211 58.404C1.69278 57.9933 2.07078 57.676 2.55611 57.452C3.05078 57.228 3.61544 57.116 4.25011 57.116C5.16478 57.116 5.91144 57.3447 6.49011 57.802C7.07811 58.2593 7.40944 58.866 7.48411 59.622H6.08411C6.03744 59.2487 5.84144 58.922 5.49611 58.642C5.15078 58.3527 4.69344 58.208 4.12411 58.208C3.59211 58.208 3.15811 58.348 2.82211 58.628C2.48611 58.8987 2.31811 59.2813 2.31811 59.776C2.31811 60.1307 2.41611 60.42 2.61211 60.644C2.81744 60.868 3.06478 61.0407 3.35411 61.162C3.65278 61.274 4.06811 61.4047 4.60011 61.554C5.24411 61.7313 5.76211 61.9087 6.15411 62.086C6.54611 62.254 6.88211 62.52 7.16211 62.884C7.44211 63.2387 7.58211 63.724 7.58211 64.34C7.58211 64.816 7.45611 65.264 7.20411 65.684C6.95211 66.104 6.57878 66.4447 6.08411 66.706C5.58944 66.9673 5.00611 67.098 4.33411 67.098ZM11.0109 60.378V64.9C11.0109 65.2733 11.0902 65.5393 11.2489 65.698C11.4076 65.8473 11.6829 65.922 12.0749 65.922H13.0129V67H11.8649C11.1556 67 10.6236 66.8367 10.2689 66.51C9.91424 66.1833 9.73691 65.6467 9.73691 64.9V60.378H8.74291V59.328H9.73691V57.396H11.0109V59.328H13.0129V60.378H11.0109ZM21.5565 62.87C21.5565 63.1127 21.5425 63.3693 21.5145 63.64H15.3825C15.4292 64.396 15.6858 64.9887 16.1525 65.418C16.6285 65.838 17.2025 66.048 17.8745 66.048C18.4252 66.048 18.8825 65.922 19.2465 65.67C19.6198 65.4087 19.8812 65.0633 20.0305 64.634H21.4025C21.1972 65.3713 20.7865 65.9733 20.1705 66.44C19.5545 66.8973 18.7892 67.126 17.8745 67.126C17.1465 67.126 16.4932 66.9627 15.9145 66.636C15.3452 66.3093 14.8972 65.8473 14.5705 65.25C14.2438 64.6433 14.0805 63.9433 14.0805 63.15C14.0805 62.3567 14.2392 61.6613 14.5565 61.064C14.8738 60.4667 15.3172 60.0093 15.8865 59.692C16.4652 59.3653 17.1278 59.202 17.8745 59.202C18.6025 59.202 19.2465 59.3607 19.8065 59.678C20.3665 59.9953 20.7958 60.434 21.0945 60.994C21.4025 61.5447 21.5565 62.17 21.5565 62.87ZM20.2405 62.604C20.2405 62.1187 20.1332 61.7033 19.9185 61.358C19.7038 61.0033 19.4098 60.7373 19.0365 60.56C18.6725 60.3733 18.2665 60.28 17.8185 60.28C17.1745 60.28 16.6238 60.4853 16.1665 60.896C15.7185 61.3067 15.4618 61.876 15.3965 62.604H20.2405ZM24.5122 60.742C24.7642 60.3033 25.1375 59.9393 25.6322 59.65C26.1362 59.3513 26.7195 59.202 27.3822 59.202C28.0635 59.202 28.6795 59.3653 29.2302 59.692C29.7902 60.0187 30.2288 60.4807 30.5462 61.078C30.8635 61.666 31.0222 62.352 31.0222 63.136C31.0222 63.9107 30.8635 64.6013 30.5462 65.208C30.2288 65.8147 29.7902 66.286 29.2302 66.622C28.6795 66.958 28.0635 67.126 27.3822 67.126C26.7288 67.126 26.1502 66.9813 25.6462 66.692C25.1515 66.3933 24.7735 66.0247 24.5122 65.586V70.64H23.2382V59.328H24.5122V60.742ZM29.7202 63.136C29.7202 62.5573 29.6035 62.0533 29.3702 61.624C29.1368 61.1947 28.8195 60.868 28.4182 60.644C28.0262 60.42 27.5922 60.308 27.1162 60.308C26.6495 60.308 26.2155 60.4247 25.8142 60.658C25.4222 60.882 25.1048 61.2133 24.8622 61.652C24.6288 62.0813 24.5122 62.5807 24.5122 63.15C24.5122 63.7287 24.6288 64.2373 24.8622 64.676C25.1048 65.1053 25.4222 65.4367 25.8142 65.67C26.2155 65.894 26.6495 66.006 27.1162 66.006C27.5922 66.006 28.0262 65.894 28.4182 65.67C28.8195 65.4367 29.1368 65.1053 29.3702 64.676C29.6035 64.2373 29.7202 63.724 29.7202 63.136ZM35.8855 58.04V56.878H38.5175V67H37.2295V58.04H35.8855Z" fill="#ADBDCC"/>
<path d="M470.172 67.098C469.528 67.098 468.949 66.986 468.436 66.762C467.932 66.5287 467.535 66.2113 467.246 65.81C466.957 65.3993 466.807 64.928 466.798 64.396H468.156C468.203 64.8533 468.389 65.2407 468.716 65.558C469.052 65.866 469.537 66.02 470.172 66.02C470.779 66.02 471.255 65.8707 471.6 65.572C471.955 65.264 472.132 64.872 472.132 64.396C472.132 64.0227 472.029 63.7193 471.824 63.486C471.619 63.2527 471.362 63.0753 471.054 62.954C470.746 62.8327 470.331 62.702 469.808 62.562C469.164 62.394 468.646 62.226 468.254 62.058C467.871 61.89 467.54 61.6287 467.26 61.274C466.989 60.91 466.854 60.4247 466.854 59.818C466.854 59.286 466.989 58.8147 467.26 58.404C467.531 57.9933 467.909 57.676 468.394 57.452C468.889 57.228 469.453 57.116 470.088 57.116C471.003 57.116 471.749 57.3447 472.328 57.802C472.916 58.2593 473.247 58.866 473.322 59.622H471.922C471.875 59.2487 471.679 58.922 471.334 58.642C470.989 58.3527 470.531 58.208 469.962 58.208C469.43 58.208 468.996 58.348 468.66 58.628C468.324 58.8987 468.156 59.2813 468.156 59.776C468.156 60.1307 468.254 60.42 468.45 60.644C468.655 60.868 468.903 61.0407 469.192 61.162C469.491 61.274 469.906 61.4047 470.438 61.554C471.082 61.7313 471.6 61.9087 471.992 62.086C472.384 62.254 472.72 62.52 473 62.884C473.28 63.2387 473.42 63.724 473.42 64.34C473.42 64.816 473.294 65.264 473.042 65.684C472.79 66.104 472.417 66.4447 471.922 66.706C471.427 66.9673 470.844 67.098 470.172 67.098ZM476.849 60.378V64.9C476.849 65.2733 476.928 65.5393 477.087 65.698C477.245 65.8473 477.521 65.922 477.913 65.922H478.851V67H477.703C476.993 67 476.461 66.8367 476.107 66.51C475.752 66.1833 475.575 65.6467 475.575 64.9V60.378H474.581V59.328H475.575V57.396H476.849V59.328H478.851V60.378H476.849ZM487.394 62.87C487.394 63.1127 487.38 63.3693 487.352 63.64H481.22C481.267 64.396 481.524 64.9887 481.99 65.418C482.466 65.838 483.04 66.048 483.712 66.048C484.263 66.048 484.72 65.922 485.084 65.67C485.458 65.4087 485.719 65.0633 485.868 64.634H487.24C487.035 65.3713 486.624 65.9733 486.008 66.44C485.392 66.8973 484.627 67.126 483.712 67.126C482.984 67.126 482.331 66.9627 481.752 66.636C481.183 66.3093 480.735 65.8473 480.408 65.25C480.082 64.6433 479.918 63.9433 479.918 63.15C479.918 62.3567 480.077 61.6613 480.394 61.064C480.712 60.4667 481.155 60.0093 481.724 59.692C482.303 59.3653 482.966 59.202 483.712 59.202C484.44 59.202 485.084 59.3607 485.644 59.678C486.204 59.9953 486.634 60.434 486.932 60.994C487.24 61.5447 487.394 62.17 487.394 62.87ZM486.078 62.604C486.078 62.1187 485.971 61.7033 485.756 61.358C485.542 61.0033 485.248 60.7373 484.874 60.56C484.51 60.3733 484.104 60.28 483.656 60.28C483.012 60.28 482.462 60.4853 482.004 60.896C481.556 61.3067 481.3 61.876 481.234 62.604H486.078ZM490.35 60.742C490.602 60.3033 490.975 59.9393 491.47 59.65C491.974 59.3513 492.557 59.202 493.22 59.202C493.901 59.202 494.517 59.3653 495.068 59.692C495.628 60.0187 496.067 60.4807 496.384 61.078C496.701 61.666 496.86 62.352 496.86 63.136C496.86 63.9107 496.701 64.6013 496.384 65.208C496.067 65.8147 495.628 66.286 495.068 66.622C494.517 66.958 493.901 67.126 493.22 67.126C492.567 67.126 491.988 66.9813 491.484 66.692C490.989 66.3933 490.611 66.0247 490.35 65.586V70.64H489.076V59.328H490.35V60.742ZM495.558 63.136C495.558 62.5573 495.441 62.0533 495.208 61.624C494.975 61.1947 494.657 60.868 494.256 60.644C493.864 60.42 493.43 60.308 492.954 60.308C492.487 60.308 492.053 60.4247 491.652 60.658C491.26 60.882 490.943 61.2133 490.7 61.652C490.467 62.0813 490.35 62.5807 490.35 63.15C490.35 63.7287 490.467 64.2373 490.7 64.676C490.943 65.1053 491.26 65.4367 491.652 65.67C492.053 65.894 492.487 66.006 492.954 66.006C493.43 66.006 493.864 65.894 494.256 65.67C494.657 65.4367 494.975 65.1053 495.208 64.676C495.441 64.2373 495.558 63.724 495.558 63.136ZM501.905 65.978C503.091 65.026 504.019 64.2467 504.691 63.64C505.363 63.024 505.928 62.3847 506.385 61.722C506.852 61.05 507.085 60.392 507.085 59.748C507.085 59.1413 506.936 58.6653 506.637 58.32C506.348 57.9653 505.877 57.788 505.223 57.788C504.589 57.788 504.094 57.9887 503.739 58.39C503.394 58.782 503.207 59.3093 503.179 59.972H501.947C501.985 58.9267 502.302 58.1193 502.899 57.55C503.497 56.9807 504.267 56.696 505.209 56.696C506.171 56.696 506.931 56.962 507.491 57.494C508.061 58.026 508.345 58.7587 508.345 59.692C508.345 60.4667 508.112 61.2227 507.645 61.96C507.188 62.688 506.665 63.332 506.077 63.892C505.489 64.4427 504.738 65.0867 503.823 65.824H508.639V66.888H501.905V65.978Z" fill="#ADBDCC"/>
<path d="M936.172 67.098C935.528 67.098 934.949 66.986 934.436 66.762C933.932 66.5287 933.535 66.2113 933.246 65.81C932.957 65.3993 932.807 64.928 932.798 64.396H934.156C934.203 64.8533 934.389 65.2407 934.716 65.558C935.052 65.866 935.537 66.02 936.172 66.02C936.779 66.02 937.255 65.8707 937.6 65.572C937.955 65.264 938.132 64.872 938.132 64.396C938.132 64.0227 938.029 63.7193 937.824 63.486C937.619 63.2527 937.362 63.0753 937.054 62.954C936.746 62.8327 936.331 62.702 935.808 62.562C935.164 62.394 934.646 62.226 934.254 62.058C933.871 61.89 933.54 61.6287 933.26 61.274C932.989 60.91 932.854 60.4247 932.854 59.818C932.854 59.286 932.989 58.8147 933.26 58.404C933.531 57.9933 933.909 57.676 934.394 57.452C934.889 57.228 935.453 57.116 936.088 57.116C937.003 57.116 937.749 57.3447 938.328 57.802C938.916 58.2593 939.247 58.866 939.322 59.622H937.922C937.875 59.2487 937.679 58.922 937.334 58.642C936.989 58.3527 936.531 58.208 935.962 58.208C935.43 58.208 934.996 58.348 934.66 58.628C934.324 58.8987 934.156 59.2813 934.156 59.776C934.156 60.1307 934.254 60.42 934.45 60.644C934.655 60.868 934.903 61.0407 935.192 61.162C935.491 61.274 935.906 61.4047 936.438 61.554C937.082 61.7313 937.6 61.9087 937.992 62.086C938.384 62.254 938.72 62.52 939 62.884C939.28 63.2387 939.42 63.724 939.42 64.34C939.42 64.816 939.294 65.264 939.042 65.684C938.79 66.104 938.417 66.4447 937.922 66.706C937.427 66.9673 936.844 67.098 936.172 67.098ZM942.849 60.378V64.9C942.849 65.2733 942.928 65.5393 943.087 65.698C943.245 65.8473 943.521 65.922 943.913 65.922H944.851V67H943.703C942.993 67 942.461 66.8367 942.107 66.51C941.752 66.1833 941.575 65.6467 941.575 64.9V60.378H940.581V59.328H941.575V57.396H942.849V59.328H944.851V60.378H942.849ZM953.394 62.87C953.394 63.1127 953.38 63.3693 953.352 63.64H947.22C947.267 64.396 947.524 64.9887 947.99 65.418C948.466 65.838 949.04 66.048 949.712 66.048C950.263 66.048 950.72 65.922 951.084 65.67C951.458 65.4087 951.719 65.0633 951.868 64.634H953.24C953.035 65.3713 952.624 65.9733 952.008 66.44C951.392 66.8973 950.627 67.126 949.712 67.126C948.984 67.126 948.331 66.9627 947.752 66.636C947.183 66.3093 946.735 65.8473 946.408 65.25C946.082 64.6433 945.918 63.9433 945.918 63.15C945.918 62.3567 946.077 61.6613 946.394 61.064C946.712 60.4667 947.155 60.0093 947.724 59.692C948.303 59.3653 948.966 59.202 949.712 59.202C950.44 59.202 951.084 59.3607 951.644 59.678C952.204 59.9953 952.634 60.434 952.932 60.994C953.24 61.5447 953.394 62.17 953.394 62.87ZM952.078 62.604C952.078 62.1187 951.971 61.7033 951.756 61.358C951.542 61.0033 951.248 60.7373 950.874 60.56C950.51 60.3733 950.104 60.28 949.656 60.28C949.012 60.28 948.462 60.4853 948.004 60.896C947.556 61.3067 947.3 61.876 947.234 62.604H952.078ZM956.35 60.742C956.602 60.3033 956.975 59.9393 957.47 59.65C957.974 59.3513 958.557 59.202 959.22 59.202C959.901 59.202 960.517 59.3653 961.068 59.692C961.628 60.0187 962.067 60.4807 962.384 61.078C962.701 61.666 962.86 62.352 962.86 63.136C962.86 63.9107 962.701 64.6013 962.384 65.208C962.067 65.8147 961.628 66.286 961.068 66.622C960.517 66.958 959.901 67.126 959.22 67.126C958.567 67.126 957.988 66.9813 957.484 66.692C956.989 66.3933 956.611 66.0247 956.35 65.586V70.64H955.076V59.328H956.35V60.742ZM961.558 63.136C961.558 62.5573 961.441 62.0533 961.208 61.624C960.975 61.1947 960.657 60.868 960.256 60.644C959.864 60.42 959.43 60.308 958.954 60.308C958.487 60.308 958.053 60.4247 957.652 60.658C957.26 60.882 956.943 61.2133 956.7 61.652C956.467 62.0813 956.35 62.5807 956.35 63.15C956.35 63.7287 956.467 64.2373 956.7 64.676C956.943 65.1053 957.26 65.4367 957.652 65.67C958.053 65.894 958.487 66.006 958.954 66.006C959.43 66.006 959.864 65.894 960.256 65.67C960.657 65.4367 960.975 65.1053 961.208 64.676C961.441 64.2373 961.558 63.724 961.558 63.136ZM968.031 59.426C968.097 58.5673 968.428 57.8953 969.025 57.41C969.623 56.9247 970.397 56.682 971.349 56.682C971.984 56.682 972.53 56.7987 972.987 57.032C973.454 57.256 973.804 57.564 974.037 57.956C974.28 58.348 974.401 58.7913 974.401 59.286C974.401 59.8647 974.233 60.364 973.897 60.784C973.571 61.204 973.141 61.4747 972.609 61.596V61.666C973.216 61.8153 973.697 62.1093 974.051 62.548C974.406 62.9867 974.583 63.5607 974.583 64.27C974.583 64.802 974.462 65.2827 974.219 65.712C973.977 66.132 973.613 66.4633 973.127 66.706C972.642 66.9487 972.059 67.07 971.377 67.07C970.388 67.07 969.576 66.8133 968.941 66.3C968.307 65.7773 967.952 65.04 967.877 64.088H969.109C969.175 64.648 969.403 65.1053 969.795 65.46C970.187 65.8147 970.71 65.992 971.363 65.992C972.017 65.992 972.511 65.824 972.847 65.488C973.193 65.1427 973.365 64.6993 973.365 64.158C973.365 63.458 973.132 62.954 972.665 62.646C972.199 62.338 971.494 62.184 970.551 62.184H970.229V61.12H970.565C971.424 61.1107 972.073 60.9707 972.511 60.7C972.95 60.42 973.169 59.9907 973.169 59.412C973.169 58.9173 973.006 58.5207 972.679 58.222C972.362 57.9233 971.905 57.774 971.307 57.774C970.729 57.774 970.262 57.9233 969.907 58.222C969.553 58.5207 969.343 58.922 969.277 59.426H968.031Z" fill="#738496"/>
<defs>
<linearGradient id="paint0_linear_202_8512" x1="20" y1="19" x2="484" y2="19" gradientUnits="userSpaceOnUse">
<stop offset="0.999548" stop-color="#2694B7"/>
<stop offset="1" stop-color="#DEE2E6"/>
</linearGradient>
</defs>
</svg>
