<svg width="18" height="20" viewBox="0 0 18 20" fill="none" xmlns="http://www.w3.org/2000/svg">
<path d="M2.30431 12.2829C2.35447 12.5085 2.40254 12.7262 2.44897 12.9364C2.7168 14.1491 2.92992 15.1141 3.17189 15.9134C3.45404 16.8454 3.74252 17.4305 4.10292 17.8318C4.78507 18.5912 6.00902 19 9.33333 19C12.6576 19 13.8816 18.5912 14.5637 17.8318C14.9241 17.4305 15.2126 16.8454 15.4948 15.9134C15.7367 15.1141 15.9499 14.1491 16.2177 12.9364C16.2641 12.7262 16.3122 12.5085 16.3624 12.2829C17.0068 9.38497 16.5641 8.01817 15.6665 7.26682C15.1695 6.85086 14.4287 6.52459 13.3554 6.30844C12.285 6.09285 10.952 6 9.33333 6C7.71464 6 6.3817 6.09285 5.31123 6.30844C4.23801 6.52459 3.49713 6.85086 3.00019 7.26682C2.10256 8.01817 1.65991 9.38497 2.30431 12.2829Z" stroke="white" stroke-width="2" stroke-linecap="round" stroke-linejoin="round"/>
<path d="M9.33333 10V15M6 10V15M12.6667 10V15" stroke="white" stroke-width="2" stroke-linecap="round" stroke-linejoin="round"/>
<path fill-rule="evenodd" clip-rule="evenodd" d="M10.9998 1.55839C14.0748 1.77934 16.1498 2.58825 17.3488 3.30987C17.822 3.59467 17.9747 4.20914 17.6899 4.68233C17.4051 5.15552 16.7907 5.30825 16.3175 5.02346C15.2601 4.38706 13.0194 3.5 9.33313 3.5C5.63212 3.5 3.33099 4.39341 2.37336 5.00818C1.90861 5.30654 1.28998 5.17166 0.991614 4.7069C0.693252 4.24214 0.828141 3.62351 1.2929 3.32515C2.4457 2.58508 4.58191 1.77814 7.66646 1.55811V1C7.66646 0.447715 8.11418 0 8.66646 0H9.9998C10.5521 0 10.9998 0.447715 10.9998 1V1.55839Z" fill="white"/>
</svg>
