<svg width="36" height="36" viewBox="0 0 36 36" fill="none" xmlns="http://www.w3.org/2000/svg">
<path d="M16.0602 12.075C16.0602 12.2407 16.1945 12.375 16.3602 12.375L29.2715 12.375C29.4372 12.375 29.5715 12.5093 29.5715 12.675L29.5715 14.325C29.5715 14.4907 29.4372 14.625 29.2715 14.625L16.3602 14.625C16.1945 14.625 16.0602 14.7593 16.0602 14.925L16.0602 17.2744C16.0602 17.5419 15.7367 17.6757 15.5478 17.4863L11.7828 13.7119C11.666 13.5948 11.666 13.4052 11.7828 13.2881L15.5478 9.51368C15.7367 9.32433 16.0602 9.45809 16.0602 9.72555L16.0602 12.075Z" fill="#737F89"/>
<path d="M19.9398 21.075C19.9398 21.2407 19.8055 21.375 19.6398 21.375L6.72859 21.375C6.5629 21.375 6.42859 21.5093 6.42859 21.675V23.325C6.42859 23.4907 6.5629 23.625 6.72859 23.625H19.6398C19.8055 23.625 19.9398 23.7593 19.9398 23.925V26.2745C19.9398 26.5419 20.2634 26.6757 20.4522 26.4863L24.2173 22.7119C24.3341 22.5948 24.3341 22.4052 24.2173 22.2881L20.4522 18.5137C20.2634 18.3243 19.9398 18.4581 19.9398 18.7255V21.075Z" fill="#737F89"/>
</svg>
