<svg width="156" height="156" viewBox="0 0 156 156" fill="none" xmlns="http://www.w3.org/2000/svg">
<circle cx="78" cy="78" r="78" fill="#10B981"/>
<path d="M85.7593 53.76C86.8862 52.6871 88.3859 52.094 89.9418 52.1057C91.4978 52.1175 92.9883 52.7333 94.0989 53.8231C95.2094 54.9129 95.8532 56.3915 95.8943 57.947C95.9355 59.5024 95.3707 61.013 94.3193 62.16L62.3993 102.08C61.8504 102.671 61.188 103.146 60.4516 103.475C59.7151 103.804 58.9199 103.982 58.1133 103.997C57.3068 104.012 56.5055 103.864 55.7574 103.562C55.0093 103.26 54.3297 102.81 53.7593 102.24L32.5913 81.072C32.0018 80.5227 31.529 79.8603 31.2011 79.1243C30.8731 78.3883 30.6968 77.5938 30.6826 76.7882C30.6684 75.9825 30.8166 75.1823 31.1183 74.4352C31.4201 73.6881 31.8693 73.0094 32.439 72.4397C33.0088 71.8699 33.6874 71.4208 34.4345 71.119C35.1816 70.8172 35.9819 70.669 36.7875 70.6832C37.5931 70.6975 38.3876 70.8738 39.1236 71.2017C39.8596 71.5297 40.522 72.0025 41.0713 72.592L57.8233 89.336L85.5993 53.936C85.6491 53.8742 85.7026 53.8154 85.7593 53.76ZM78.3993 94.88L85.7593 102.24C86.3296 102.809 87.0086 103.258 87.756 103.559C88.5033 103.86 89.3037 104.007 90.1093 103.992C90.9149 103.978 91.7092 103.8 92.4449 103.472C93.1806 103.143 93.8425 102.67 94.3913 102.08L126.327 62.16C126.901 61.5936 127.355 60.9174 127.661 60.1718C127.968 59.4262 128.121 58.6264 128.112 57.8203C128.102 57.0142 127.93 56.2182 127.606 55.48C127.283 54.7417 126.813 54.0763 126.227 53.5234C125.64 52.9706 124.948 52.5416 124.192 52.2622C123.435 51.9828 122.631 51.8586 121.825 51.8971C121.02 51.9356 120.231 52.136 119.505 52.4863C118.779 52.8366 118.131 53.3297 117.599 53.936L89.8153 89.336L85.9353 85.448L78.3913 94.88H78.3993Z" fill="white"/>
</svg>
