<svg width="20" height="20" viewBox="0 0 20 20" fill="none" xmlns="http://www.w3.org/2000/svg">
<g clip-path="url(#clip0_202_7892)">
<path d="M13.8497 5.17497C13.7634 5.10667 13.6645 5.05613 13.5586 5.02627C13.4527 4.99641 13.3419 4.98782 13.2327 5.00099C13.1234 5.01416 13.0179 5.04883 12.9221 5.10301C12.8263 5.15718 12.7422 5.22979 12.6747 5.31663L6.84134 12.8166L3.983 9.3333C3.91596 9.24405 3.83166 9.16919 3.73513 9.11314C3.63859 9.0571 3.53178 9.02102 3.42103 9.00705C3.31029 8.99308 3.19786 9.0015 3.09043 9.03181C2.983 9.06212 2.88275 9.11371 2.79564 9.18351C2.70853 9.25331 2.63634 9.3399 2.58333 9.43814C2.53033 9.53638 2.4976 9.64426 2.4871 9.75539C2.47659 9.86652 2.48852 9.97863 2.52217 10.0851C2.55582 10.1915 2.61052 10.2901 2.683 10.375L6.158 14.6916C6.23643 14.7883 6.33553 14.8662 6.44802 14.9196C6.5605 14.9729 6.68351 15.0004 6.808 15C6.94015 15.0059 7.0718 14.9802 7.19208 14.9252C7.31235 14.8701 7.41779 14.7872 7.49967 14.6833L14.0247 6.34997C14.0912 6.26166 14.1395 6.16099 14.1667 6.05383C14.1939 5.94667 14.1996 5.83517 14.1833 5.72581C14.167 5.61645 14.1291 5.51143 14.0718 5.41686C14.0146 5.32229 13.939 5.24006 13.8497 5.17497Z" fill="#ABB4BE"/>
<path d="M18.0169 5.17497C17.9306 5.10667 17.8317 5.05613 17.7258 5.02627C17.6199 4.99641 17.5091 4.98782 17.3998 5.00099C17.2906 5.01416 17.1851 5.04883 17.0893 5.10301C16.9935 5.15718 16.9094 5.22979 16.8419 5.31663L11.0085 12.8166L10.5002 12.1916L9.4502 13.5416L10.3669 14.6833C10.4453 14.78 10.5444 14.8579 10.6569 14.9112C10.7694 14.9646 10.8924 14.9921 11.0169 14.9916C11.142 14.9911 11.2655 14.9623 11.378 14.9075C11.4905 14.8526 11.5893 14.7732 11.6669 14.675L18.1919 6.34163C18.2571 6.25358 18.3043 6.15353 18.3308 6.0472C18.3573 5.94088 18.3626 5.83037 18.3463 5.72201C18.3301 5.61364 18.2926 5.50954 18.2361 5.41567C18.1795 5.32181 18.105 5.24001 18.0169 5.17497Z" fill="#ABB4BE"/>
<path d="M7.25786 10.8833L8.33286 9.53328L8.16619 9.33328C8.1004 9.24213 8.01685 9.16524 7.92056 9.10722C7.82427 9.04921 7.71725 9.01127 7.60592 8.9957C7.49459 8.98013 7.38126 8.98725 7.27275 9.01662C7.16424 9.04599 7.0628 9.09701 6.97452 9.16662C6.88892 9.23538 6.81775 9.32039 6.7651 9.41676C6.71246 9.51312 6.67938 9.61894 6.66776 9.72813C6.65615 9.83732 6.66622 9.94773 6.69742 10.053C6.72861 10.1583 6.7803 10.2564 6.84953 10.3416L7.25786 10.8833Z" fill="#ABB4BE"/>
</g>
<defs>
<clipPath id="clip0_202_7892">
<rect width="20" height="20" fill="white"/>
</clipPath>
</defs>
</svg>
