<svg width="18" height="17" viewBox="0 0 18 17" fill="none" xmlns="http://www.w3.org/2000/svg">
<path d="M12.75 8.27273L9 11.9091M9 11.9091L5.25 8.27272M9 11.9091L9 1.72727" stroke="white" stroke-width="1.5" stroke-linecap="round" stroke-linejoin="round"/>
<path fill-rule="evenodd" clip-rule="evenodd" d="M3.75 4.87258C3.75 4.37521 3.28142 4.00303 2.81721 4.18159C0.606264 5.03203 0 6.80173 0 10.2405C0 15.8069 1.5885 16.9999 9 16.9999C16.4115 16.9999 18 15.8069 18 10.2405C18 6.80173 17.3937 5.03203 15.1828 4.18159C14.7186 4.00303 14.25 4.37521 14.25 4.87258C14.25 5.21432 14.479 5.50693 14.7929 5.64204C15.0328 5.7453 15.2238 5.85669 15.3785 5.97286C16.0675 6.49035 16.5 7.46971 16.5 10.2405C16.5 13.0114 16.0675 13.9907 15.3785 14.5082C14.9849 14.8038 14.3556 15.0685 13.286 15.247C12.2185 15.4252 10.8278 15.4999 9 15.4999C7.17219 15.4999 5.78154 15.4252 4.71398 15.247C3.64443 15.0685 3.01509 14.8038 2.62149 14.5082C1.93245 13.9907 1.5 13.0114 1.5 10.2405C1.5 7.46971 1.93245 6.49035 2.62149 5.97286C2.77616 5.85669 2.96724 5.7453 3.20713 5.64204C3.52103 5.50693 3.75 5.21432 3.75 4.87258Z" fill="white"/>
</svg>
