<svg width="140" height="28" viewBox="0 0 140 28" fill="none" xmlns="http://www.w3.org/2000/svg">
<path d="M13.1359 1.48359C13.5216 0.82132 14.4784 0.821321 14.8641 1.48359L18.3042 7.38978C18.4455 7.63239 18.6822 7.80441 18.9566 7.86383L25.6368 9.3104C26.3858 9.4726 26.6815 10.3825 26.1708 10.954L21.6167 16.0508C21.4297 16.2602 21.3392 16.5385 21.3675 16.8179L22.056 23.6181C22.1332 24.3806 21.3592 24.943 20.6579 24.6339L14.4032 21.8777C14.1463 21.7645 13.8537 21.7645 13.5968 21.8777L7.34212 24.6339C6.64078 24.943 5.86675 24.3806 5.94396 23.6181L6.63247 16.8179C6.66076 16.5385 6.57032 16.2602 6.38325 16.0508L1.82916 10.954C1.3185 10.3825 1.61416 9.4726 2.36321 9.3104L9.04337 7.86383C9.31776 7.80441 9.55454 7.63239 9.69584 7.38978L13.1359 1.48359Z" fill="#DEE2E6"/>
<path d="M41.1359 1.48359C41.5216 0.82132 42.4784 0.821321 42.8641 1.48359L46.3042 7.38978C46.4455 7.63239 46.6822 7.80441 46.9566 7.86383L53.6368 9.3104C54.3858 9.4726 54.6815 10.3825 54.1708 10.954L49.6167 16.0508C49.4297 16.2602 49.3392 16.5385 49.3675 16.8179L50.056 23.6181C50.1332 24.3806 49.3592 24.943 48.6579 24.6339L42.4032 21.8777C42.1463 21.7645 41.8537 21.7645 41.5968 21.8777L35.3421 24.6339C34.6408 24.943 33.8668 24.3806 33.944 23.6181L34.6325 16.8179C34.6608 16.5385 34.5703 16.2602 34.3833 16.0508L29.8292 10.954C29.3185 10.3825 29.6142 9.4726 30.3632 9.3104L37.0434 7.86383C37.3178 7.80441 37.5545 7.63239 37.6958 7.38978L41.1359 1.48359Z" fill="#DEE2E6"/>
<path d="M97.1359 1.48359C97.5216 0.82132 98.4784 0.821321 98.8641 1.48359L102.304 7.38978C102.445 7.63239 102.682 7.80441 102.957 7.86383L109.637 9.3104C110.386 9.4726 110.681 10.3825 110.171 10.954L105.617 16.0508C105.43 16.2602 105.339 16.5385 105.368 16.8179L106.056 23.6181C106.133 24.3806 105.359 24.943 104.658 24.6339L98.4032 21.8777C98.1463 21.7645 97.8537 21.7645 97.5968 21.8777L91.3421 24.6339C90.6408 24.943 89.8668 24.3806 89.944 23.6181L90.6325 16.8179C90.6608 16.5385 90.5703 16.2602 90.3833 16.0508L85.8292 10.954C85.3185 10.3825 85.6142 9.4726 86.3632 9.3104L93.0434 7.86383C93.3178 7.80441 93.5545 7.63239 93.6958 7.38978L97.1359 1.48359Z" fill="#DEE2E6"/>
<path d="M69.1359 1.48359C69.5216 0.82132 70.4784 0.821321 70.8641 1.48359L74.3042 7.38978C74.4455 7.63239 74.6822 7.80441 74.9566 7.86383L81.6368 9.3104C82.3858 9.4726 82.6815 10.3825 82.1708 10.954L77.6167 16.0508C77.4297 16.2602 77.3392 16.5385 77.3675 16.8179L78.056 23.6181C78.1332 24.3806 77.3592 24.943 76.6579 24.6339L70.4032 21.8777C70.1463 21.7645 69.8537 21.7645 69.5968 21.8777L63.3421 24.6339C62.6408 24.943 61.8668 24.3806 61.944 23.6181L62.6325 16.8179C62.6608 16.5385 62.5703 16.2602 62.3833 16.0508L57.8292 10.954C57.3185 10.3825 57.6142 9.4726 58.3632 9.3104L65.0434 7.86383C65.3178 7.80441 65.5545 7.63239 65.6958 7.38978L69.1359 1.48359Z" fill="#DEE2E6"/>
<path d="M125.136 1.48359C125.522 0.82132 126.478 0.821321 126.864 1.48359L130.304 7.38978C130.445 7.63239 130.682 7.80441 130.957 7.86383L137.637 9.3104C138.386 9.4726 138.681 10.3825 138.171 10.954L133.617 16.0508C133.43 16.2602 133.339 16.5385 133.368 16.8179L134.056 23.6181C134.133 24.3806 133.359 24.943 132.658 24.6339L126.403 21.8777C126.146 21.7645 125.854 21.7645 125.597 21.8777L119.342 24.6339C118.641 24.943 117.867 24.3806 117.944 23.6181L118.632 16.8179C118.661 16.5385 118.57 16.2602 118.383 16.0508L113.829 10.954C113.319 10.3825 113.614 9.4726 114.363 9.3104L121.043 7.86383C121.318 7.80441 121.555 7.63239 121.696 7.38978L125.136 1.48359Z" fill="#DEE2E6"/>
</svg>
