<svg width="44" height="44" viewBox="0 0 44 44" fill="none" xmlns="http://www.w3.org/2000/svg">
<path d="M0 5C0 2.23858 2.23858 0 5 0H39C41.7614 0 44 2.23858 44 5V39C44 41.7614 41.7614 44 39 44H5C2.23858 44 0 41.7614 0 39V5Z" fill="#2694B7" fill-opacity="0.1"/>
<path d="M33.5 9.5H10.5C9.94687 9.5 9.5 9.94687 9.5 10.5V33.5C9.5 34.0531 9.94687 34.5 10.5 34.5H33.5C34.0531 34.5 34.5 34.0531 34.5 33.5V10.5C34.5 9.94687 34.0531 9.5 33.5 9.5ZM30.6125 16.7969H28.6156C27.05 16.7969 26.7469 17.5406 26.7469 18.6344V21.0437H30.4844L29.9969 24.8156H26.7469V34.5H22.85V24.8188H19.5906V21.0437H22.85V18.2625C22.85 15.0344 24.8219 13.275 27.7031 13.275C29.0844 13.275 30.2688 13.3781 30.6156 13.425V16.7969H30.6125Z" fill="#2694B7"/>
</svg>
