<svg width="3" height="19" viewBox="0 0 3 19" fill="none" xmlns="http://www.w3.org/2000/svg">
<path fill-rule="evenodd" clip-rule="evenodd" d="M3 1.5C3 2.32843 2.32843 3 1.5 3C0.671573 3 0 2.32843 0 1.5C0 0.671573 0.671573 0 1.5 0C2.32843 0 3 0.671573 3 1.5ZM3 17.5C3 18.3284 2.32843 19 1.5 19C0.671573 19 0 18.3284 0 17.5C0 16.6716 0.671573 16 1.5 16C2.32843 16 3 16.6716 3 17.5ZM1.5 11C2.32843 11 3 10.3284 3 9.5C3 8.67157 2.32843 8 1.5 8C0.671573 8 0 8.67157 0 9.5C0 10.3284 0.671573 11 1.5 11Z" fill="url(#paint0_linear_202_7801)"/>
<defs>
<linearGradient id="paint0_linear_202_7801" x1="1.5" y1="0" x2="1.5" y2="19" gradientUnits="userSpaceOnUse">
<stop stop-color="#2694B7" stop-opacity="0"/>
<stop offset="1" stop-color="#2694B7"/>
</linearGradient>
</defs>
</svg>
