<svg width="18" height="18" viewBox="0 0 18 18" fill="none" xmlns="http://www.w3.org/2000/svg">
<g clip-path="url(#clip0_202_15636)">
<path d="M17.9909 9.16838C17.9909 8.43093 17.9297 7.89279 17.7971 7.33472H9.17969V10.6632H14.2379C14.136 11.4904 13.5853 12.7361 12.3615 13.5732L12.3443 13.6846L15.069 15.7472L15.2578 15.7657C16.9914 14.201 17.9909 11.899 17.9909 9.16838Z" fill="#4285F4"/>
<path d="M9.17884 17.9381C11.657 17.9381 13.7374 17.1408 15.2569 15.7656L12.3606 13.5731C11.5856 14.1013 10.5454 14.47 9.17884 14.47C6.75169 14.47 4.69168 12.9055 3.95734 10.7429L3.8497 10.7519L1.01654 12.8945L0.979492 12.9951C2.48881 15.925 5.58906 17.9381 9.17884 17.9381Z" fill="#34A853"/>
<path d="M3.95783 10.743C3.76407 10.1849 3.65193 9.58692 3.65193 8.96908C3.65193 8.35117 3.76407 7.75325 3.94763 7.19519L3.9425 7.07633L1.07383 4.89929L0.979977 4.94292C0.357916 6.15874 0.000976562 7.52406 0.000976562 8.96908C0.000976562 10.4141 0.357916 11.7793 0.979977 12.9952L3.95783 10.743Z" fill="#FBBC05"/>
<path d="M9.17884 3.46802C10.9023 3.46802 12.0649 4.19551 12.7278 4.80346L15.3181 2.33196C13.7272 0.886946 11.657 0 9.17884 0C5.58906 0 2.48881 2.01305 0.979492 4.94292L3.94715 7.19519C4.69168 5.03265 6.75169 3.46802 9.17884 3.46802Z" fill="#EB4335"/>
</g>
<defs>
<clipPath id="clip0_202_15636">
<rect width="18" height="18" fill="white"/>
</clipPath>
</defs>
</svg>
