<svg width="96" height="96" viewBox="0 0 96 96" fill="none" xmlns="http://www.w3.org/2000/svg">
<g id="24x24/On Light/Wave">
<path id="Path" fill-rule="evenodd" clip-rule="evenodd" d="M32.5968 59.4488C27.1406 54.6366 19.6058 48.104 10.1408 39.6627C8.48147 38.0958 8.37668 35.4929 9.90474 33.798C11.4415 32.0935 14.0493 31.8989 15.8226 33.3563C24.4492 39.1785 31.2587 43.9866 36.3512 47.627C38.1726 48.929 39.38 48.7178 39.9494 48.0077C40.5188 47.2975 40.2697 46.355 38.7219 44.455C34.3841 39.1302 28.4821 32.0527 21.1853 23.0674C19.733 21.3246 19.9649 18.7371 21.7041 17.2796C23.4865 15.7859 26.1146 15.8931 27.7691 17.527C36.8879 26.0786 44.029 32.8554 49.1923 37.8576C50.9659 39.5758 51.8589 39.8238 52.6379 39.53C53.362 39.2569 53.8914 38.3104 53.0462 36.802C50.0099 31.3832 45.8362 24.1228 40.7928 14.8511C39.427 13.0078 39.7569 10.4172 41.5413 8.97415C43.3357 7.52299 45.9501 7.71331 47.5148 9.40898C47.5148 9.40898 62.9794 29.8584 70.7117 40.0831C71.484 41.1043 71.9172 41.4327 72.596 41.2815C73.2748 41.1302 73.3424 40.6902 73.4993 39.462C74.0088 35.474 75.0278 26.51 75.0278 26.51C75.4688 24.2021 77.5484 22.5737 79.8978 22.6967C82.1971 22.817 84.0007 24.7124 84.0039 27.0119V64.4277C83.3614 73.4126 79.0568 80.199 71.0903 84.7872C63.1238 89.3753 54.6656 89.0491 45.7159 83.8086L9.79695 61.9344C7.93046 60.5953 7.44688 58.0277 8.69858 56.1028C9.94448 54.1867 12.4893 53.606 14.4448 54.7915C21.8972 58.2367 27.6953 60.9275 32.2707 63.0902C33.5613 63.7003 34.5209 63.3234 34.8308 62.5878C35.1407 61.8523 34.5209 61.1457 32.5968 59.4488Z" fill="#FFA458"/>
</g>
</svg>
