<svg width="20" height="20" viewBox="0 0 20 20" fill="none" xmlns="http://www.w3.org/2000/svg">
<path fill-rule="evenodd" clip-rule="evenodd" d="M10 20C1.765 20 0 18.235 0 10C0 1.765 1.765 0 10 0C18.235 0 20 1.765 20 10C20 18.235 18.235 20 10 20ZM9.16667 5C9.16667 4.53974 9.53979 4.16667 10 4.16667C10.4602 4.16667 10.8333 4.53974 10.8333 5V9.16667H15C15.4602 9.16667 15.8333 9.53974 15.8333 10C15.8333 10.4603 15.4602 10.8333 15 10.8333H10C9.53979 10.8333 9.16667 10.4603 9.16667 10V5Z" fill="#2694B7"/>
</svg>
