<svg width="20" height="20" viewBox="0 0 20 20" fill="none" xmlns="http://www.w3.org/2000/svg">
<path d="M0.612642 16.1919C-0.243889 12.2777 -0.012299 8.80011 0.184438 7.49374C0.324936 6.56081 5.28938 2.74617 8.11618 0.641487C9.26039 -0.210427 10.8163 -0.214279 11.9642 0.632705C14.8147 2.7361 19.8278 6.56148 19.8895 7.49374C19.8915 7.52314 19.8935 7.55365 19.8956 7.58525C19.9868 8.9545 20.2141 12.366 19.4609 16.1919C19.0328 18.3664 17.7638 19.3481 15.1772 19.6712C14.9927 19.6942 14.8087 19.716 14.6251 19.7367C14.3799 19.7642 14.1667 19.5709 14.1667 19.3236V13.4284C14.1667 12.0446 13.0474 10.9229 11.6667 10.9229L8.33333 10.9229C6.95262 10.9229 5.83333 12.0446 5.83333 13.4284L5.83333 19.3166C5.83333 19.5644 5.61922 19.7578 5.3736 19.7293C5.2147 19.7109 5.05561 19.6915 4.89629 19.6712C2.31055 19.3414 1.08509 18.3509 0.612642 16.1919Z" fill="#2694B7"/>
<path d="M7.49999 19.5284C7.49999 19.7488 7.67089 19.9315 7.89048 19.9433C9.29372 20.0184 10.6933 20.0189 12.1089 19.9447C12.3287 19.9332 12.5 19.7504 12.5 19.5298L12.5 13.4284C12.5 12.9671 12.1269 12.5932 11.6667 12.5932L8.33333 12.5932C7.87309 12.5932 7.49999 12.9671 7.49999 13.4284L7.49999 19.5284Z" fill="#2694B7"/>
</svg>
