<svg width="44" height="44" viewBox="0 0 44 44" fill="none" xmlns="http://www.w3.org/2000/svg">
<path d="M0 5C0 2.23858 2.23858 0 5 0H39C41.7614 0 44 2.23858 44 5V39C44 41.7614 41.7614 44 39 44H5C2.23858 44 0 41.7614 0 39V5Z" fill="#2694B7" fill-opacity="0.1"/>
<path d="M21.9999 17.8342C19.7062 17.8342 17.8343 19.7061 17.8343 21.9999C17.8343 24.2936 19.7062 26.1655 21.9999 26.1655C24.2937 26.1655 26.1655 24.2936 26.1655 21.9999C26.1655 19.7061 24.2937 17.8342 21.9999 17.8342ZM34.4937 21.9999C34.4937 20.2749 34.5093 18.5655 34.4124 16.8436C34.3155 14.8436 33.8593 13.0686 32.3968 11.6061C30.9312 10.1405 29.1593 9.68736 27.1593 9.59048C25.4343 9.49361 23.7249 9.50923 22.003 9.50923C20.278 9.50923 18.5687 9.49361 16.8468 9.59048C14.8468 9.68736 13.0718 10.1436 11.6093 11.6061C10.1437 13.0717 9.69053 14.8436 9.59365 16.8436C9.49678 18.5686 9.5124 20.278 9.5124 21.9999C9.5124 23.7217 9.49678 25.4342 9.59365 27.1561C9.69053 29.1561 10.1468 30.9311 11.6093 32.3936C13.0749 33.8592 14.8468 34.3124 16.8468 34.4092C18.5718 34.5061 20.2812 34.4905 22.003 34.4905C23.728 34.4905 25.4374 34.5061 27.1593 34.4092C29.1593 34.3124 30.9343 33.8561 32.3968 32.3936C33.8624 30.928 34.3155 29.1561 34.4124 27.1561C34.5124 25.4342 34.4937 23.7249 34.4937 21.9999ZM21.9999 28.4092C18.453 28.4092 15.5905 25.5467 15.5905 21.9999C15.5905 18.453 18.453 15.5905 21.9999 15.5905C25.5468 15.5905 28.4093 18.453 28.4093 21.9999C28.4093 25.5467 25.5468 28.4092 21.9999 28.4092ZM28.6718 16.8249C27.8437 16.8249 27.1749 16.1561 27.1749 15.328C27.1749 14.4999 27.8437 13.8311 28.6718 13.8311C29.4999 13.8311 30.1687 14.4999 30.1687 15.328C30.1689 15.5246 30.1304 15.7194 30.0552 15.9011C29.9801 16.0828 29.8698 16.2479 29.7308 16.387C29.5917 16.526 29.4266 16.6363 29.2449 16.7114C29.0632 16.7866 28.8684 16.8251 28.6718 16.8249Z" fill="#2694B7"/>
</svg>
