<svg width="20" height="20" viewBox="0 0 20 20" fill="none" xmlns="http://www.w3.org/2000/svg">
<path d="M9.99984 1.66663C6.77484 1.66663 4.1665 4.27496 4.1665 7.49996C4.1665 11.875 9.99984 18.3333 9.99984 18.3333C9.99984 18.3333 15.8332 11.875 15.8332 7.49996C15.8332 4.27496 13.2248 1.66663 9.99984 1.66663ZM5.83317 7.49996C5.83317 5.19996 7.69984 3.33329 9.99984 3.33329C12.2998 3.33329 14.1665 5.19996 14.1665 7.49996C14.1665 9.89996 11.7665 13.4916 9.99984 15.7333C8.2665 13.5083 5.83317 9.87496 5.83317 7.49996Z" fill="#737F89"/>
<path d="M9.99984 9.58329C11.1504 9.58329 12.0832 8.65055 12.0832 7.49996C12.0832 6.34937 11.1504 5.41663 9.99984 5.41663C8.84924 5.41663 7.9165 6.34937 7.9165 7.49996C7.9165 8.65055 8.84924 9.58329 9.99984 9.58329Z" fill="#737F89"/>
</svg>
