<svg width="20" height="23" viewBox="0 0 20 23" fill="none" xmlns="http://www.w3.org/2000/svg">
<path fill-rule="evenodd" clip-rule="evenodd" d="M0 11.9632C0 19.9845 0.75997 20.2171 6.54271 21.9869C6.94551 22.1102 7.3731 22.2411 7.82609 22.3824C11.6401 23.5726 13.6245 22.9049 14.6389 20.6447C15.7124 20.6351 16.6224 20.5676 17.3604 20.3487C18.2175 20.0945 18.8714 19.6271 19.2971 18.843C19.6892 18.1208 19.8467 17.1994 19.9231 16.1225C20 15.0384 20 13.6706 20 11.9901V11.9242C20 10.2438 20 8.87664 19.9231 7.79366C19.8467 6.71795 19.6891 5.79759 19.2966 5.07653C18.8702 4.29336 18.2156 3.82811 17.359 3.57552C16.6215 3.35804 15.712 3.29131 14.6389 3.28184C13.6244 1.02166 11.6401 0.353977 7.82609 1.54406C7.37301 1.68543 6.94575 1.81619 6.54287 1.93949C0.759984 3.70929 0 3.94187 0 11.9632ZM16.8652 18.684C16.462 18.8036 15.9233 18.8701 15.1828 18.8962C15.5578 17.1193 15.6522 14.7892 15.6522 11.9632C15.6522 9.13722 15.5578 6.80702 15.1828 5.03017C15.9238 5.05604 16.4629 5.12195 16.8665 5.24095C17.355 5.385 17.5972 5.59091 17.7686 5.90588C17.9739 6.28295 18.1153 6.88769 18.1883 7.91649C18.2604 8.93091 18.2609 10.2369 18.2609 11.9571C18.2609 13.6773 18.2604 14.9842 18.1883 15.9998C18.1153 17.0297 17.9739 17.6364 17.7681 18.0154C17.596 18.3325 17.3532 18.5393 16.8652 18.684ZM11.3043 12.8315C10.8241 12.8315 10.4348 12.4428 10.4348 11.9633C10.4348 11.4837 10.8241 11.095 11.3043 11.095C11.7846 11.095 12.1739 11.4837 12.1739 11.9633C12.1739 12.4428 11.7846 12.8315 11.3043 12.8315Z" fill="#ADBDCC"/>
</svg>
