<svg width="61" height="21" viewBox="0 0 61 21" fill="none" xmlns="http://www.w3.org/2000/svg">
<g clip-path="url(#clip0_1_2471)">
<path fill-rule="evenodd" clip-rule="evenodd" d="M36.2709 0.0248508C36.1409 0.0688381 35.9158 0.187151 35.8175 0.259958C35.6463 0.390406 35.5417 0.675568 35.5797 0.910675C35.5908 0.975899 35.6812 1.21404 35.8492 1.62206C36.6783 3.61972 38.0226 6.84448 40.5765 12.9497C42.1602 16.7417 43.5061 19.9665 43.5632 20.1167C43.7265 20.5338 43.7931 20.6567 43.9278 20.7856C44.0483 20.8994 44.1513 20.957 44.3099 20.9964C44.3923 21.0162 44.8552 21.0192 48.3127 21.0192C48.5227 21.0192 48.7216 21.0192 48.9102 21.0192C52.1647 21.0194 52.3239 21.0194 52.4558 20.9593C52.4626 20.9563 52.4693 20.953 52.4764 20.9496C52.4853 20.9453 52.4949 20.9407 52.5058 20.9358C52.7816 20.8099 52.8688 20.6688 53.1986 19.8209C53.243 19.7087 54.5889 16.4793 56.1916 12.6463C60.6034 2.09228 60.9728 1.2019 61.0045 1.06539C61.0188 0.997133 61.0315 0.875788 61.0315 0.784779C61.0331 0.528437 60.9744 0.38282 60.8111 0.228106C60.7017 0.126478 60.5654 0.0642891 60.3767 0.0309181C60.2356 0.00513268 60.0185 0.00361443 56.7227 0.00361443C53.4237 0.00361443 53.2128 0.00513268 53.1098 0.0309181C52.8847 0.0855236 52.6833 0.232655 52.5819 0.414675C52.5549 0.464729 52.4313 0.801464 52.3076 1.16398C52.1824 1.5265 51.9288 2.26065 51.7401 2.79457C51.638 3.08608 51.3927 3.78906 51.0883 4.66132C50.8351 5.38666 50.5412 6.22906 50.2547 7.04925C49.6253 8.85579 49.0879 10.3756 49.0594 10.4287C48.9865 10.5668 48.7962 10.7533 48.6631 10.8155C48.5616 10.8625 48.5521 10.8641 48.3524 10.8641C48.1653 10.8625 48.1352 10.8595 48.0353 10.8216C47.8054 10.7351 47.639 10.5926 47.5454 10.4014C47.3489 9.99796 47.2395 9.71431 47.0921 9.23348C46.9668 8.8209 46.8669 8.53726 45.995 6.10882L45.6828 5.24004L45.6806 5.23394C45.4667 4.63877 45.285 4.1334 45.2214 3.95494C45.1263 3.69253 44.9836 3.29664 44.9044 3.07518C44.8535 2.93303 44.7908 2.75963 44.7391 2.61636L44.6666 2.41536C44.6158 2.27278 44.4779 1.89054 44.3606 1.56594C44.2433 1.23983 44.1006 0.846968 44.0435 0.690735C43.9627 0.466246 43.9278 0.388887 43.8755 0.322147C43.7899 0.214453 43.6536 0.129511 43.4871 0.07794C43.469 0.072485 43.4526 0.0673923 43.4368 0.0626373C43.4268 0.0596313 43.4171 0.0567608 43.4073 0.0540199C43.2001 -0.00407028 42.9765 -0.00406265 40.0677 -0.00397682L39.7046 -0.00396919C36.496 -0.00245285 36.3486 -0.000934601 36.2709 0.0248508ZM8.22086 0.326702C8.33976 0.171988 8.45548 0.0991802 8.68377 0.0354729L8.81534 -0.00244713H12.6755C16.4057 -0.00396538 16.5404 -0.00244713 16.6815 0.0248547C16.7655 0.0415401 16.867 0.0749111 16.9225 0.102213C17.0287 0.156818 17.1825 0.300917 17.2443 0.405577C17.2871 0.475351 17.4377 0.831804 17.5899 1.21708C17.6359 1.33387 18.8692 4.29319 20.3324 7.7925C24.6555 18.1372 25.3419 19.789 25.3784 19.9271C25.426 20.1091 25.4244 20.3973 25.3768 20.5217C25.2833 20.7644 25.0582 20.9418 24.7823 20.9919C24.6904 21.0071 24.0103 21.0116 21.1964 21.0116C17.9149 21.0116 17.7183 21.0101 17.6042 20.9843C17.3854 20.9358 17.2078 20.8038 17.0905 20.6036C17.0319 20.502 16.9082 20.1743 16.6229 19.3507C16.5293 19.0792 16.3074 18.4588 16.1314 17.9704L15.9792 17.5482C15.843 17.1703 15.7078 16.7954 15.64 16.6052C15.2905 15.6295 15.0298 14.9026 14.8253 14.3322L14.8253 14.3321C14.5334 13.5184 14.3558 13.0231 14.1974 12.5781C14.0246 12.0942 13.7963 11.4556 13.6901 11.1598C13.5839 10.8641 13.4761 10.585 13.4491 10.5395C13.3382 10.3544 13.1083 10.1951 12.8864 10.1512C12.6581 10.1041 12.4425 10.1299 12.2903 10.2225C12.1968 10.2801 12.0398 10.4424 11.9796 10.544C11.9526 10.588 11.3645 12.252 10.6162 14.3983L10.2388 15.4804L10.2387 15.4809C9.08432 18.7908 9.00052 19.0311 8.72657 19.8285C8.59657 20.2092 8.47926 20.5247 8.44439 20.5839C8.32866 20.7947 8.16696 20.9206 7.93551 20.9843C7.83722 21.0101 7.67711 21.0116 4.2735 21.0116C0.957086 21.0116 0.706611 21.0101 0.590885 20.9858C0.44821 20.9555 0.395895 20.9312 0.281755 20.8478C0.173955 20.7689 0.0835941 20.6491 0.0376208 20.5217C-0.011523 20.3821 -0.011523 20.1015 0.0376208 19.9089C0.0740824 19.7678 0.592471 18.5195 5.03444 7.8911C6.47071 4.45398 7.67869 1.55988 7.71833 1.45977C8.0338 0.674055 8.14318 0.426813 8.22086 0.326702ZM19.8125 0.322144C19.8997 0.226583 20.1327 0.0915871 20.3245 0.0248451C20.4006 -0.00245667 20.6543 -0.00245667 26.4754 -0.00245667C31.5658 -0.00245667 32.5661 0.000576019 32.6691 0.0172615C32.8752 0.0536652 33.0512 0.155293 33.1717 0.306976C33.2573 0.414669 33.308 0.517815 33.4507 0.868198C33.6314 1.31111 34.768 4.00802 35.1786 4.9712C35.8365 6.51078 36.1536 7.26464 36.1774 7.3511C36.2122 7.47396 36.2249 7.67873 36.2027 7.77581C36.1758 7.89715 36.0997 8.03822 36.0109 8.13074C35.8746 8.27484 35.6685 8.3522 35.3451 8.38405C35.2262 8.39619 33.7408 8.39619 30.2246 8.38405L28.0463 8.37692H28.0461C23.1366 8.36096 23.0943 8.36082 23.0673 8.3404L23.0666 8.33987C23.0637 8.33765 23.0606 8.33521 23.0512 8.33248C22.8309 8.27029 22.647 8.12771 22.5407 7.93659C22.4932 7.85013 22.1064 6.9279 21.9542 6.54111C21.9161 6.441 21.3851 5.16232 20.7747 3.70162C20.166 2.23941 19.6603 1.01381 19.6508 0.978928C19.6 0.763538 19.6698 0.47686 19.8125 0.322144ZM25.055 12.9209C25.1438 12.839 25.3007 12.7404 25.4561 12.6691L25.5702 12.616H31.691C37.779 12.616 37.9461 12.611 38.0745 12.679C38.087 12.6856 38.0991 12.6929 38.1162 12.7009C38.2303 12.754 38.3841 12.8951 38.457 13.0119C38.4887 13.065 38.5854 13.2758 38.6694 13.4806C38.9025 14.0464 39.9963 16.6447 40.3942 17.576C41.068 19.1505 41.3517 19.8285 41.385 19.9422C41.404 20.0044 41.4231 20.1212 41.4278 20.2016C41.4389 20.3715 41.4056 20.502 41.32 20.6324C41.1916 20.8296 41.0458 20.9191 40.743 20.9858C40.6415 21.0086 40.0867 21.0101 34.5683 21.0146C29.0911 21.0192 28.4919 21.0177 28.3778 20.9964C28.1336 20.9494 27.9735 20.8493 27.8403 20.6582C27.7738 20.5611 27.4202 19.7451 27.2126 19.2066C27.1698 19.0974 26.9938 18.6711 26.8194 18.2586C26.1441 16.6568 24.9171 13.7278 24.8933 13.655C24.8077 13.4017 24.8775 13.0877 25.055 12.9209Z" fill="#2694B7"/>
</g>
<defs>
<clipPath id="clip0_1_2471">
<rect width="61" height="21" fill="white"/>
</clipPath>
</defs>
</svg>
