<svg width="18" height="18" viewBox="0 0 18 18" fill="none" xmlns="http://www.w3.org/2000/svg">
<path d="M16.8421 3.91462C16.8342 3.7889 16.7844 3.66947 16.7006 3.57545C16.6167 3.48142 16.5038 3.41826 16.3798 3.39607C13.3553 2.85396 12.0826 2.42997 9.35136 1.20091C9.07855 1.09931 8.90944 1.10107 8.64823 1.20091C5.91694 2.43138 4.64429 2.85325 1.6198 3.39607C1.4958 3.41826 1.38285 3.48142 1.29902 3.57545C1.2152 3.66947 1.16536 3.7889 1.15749 3.91462C1.02214 6.06267 1.31007 8.06306 2.0139 9.8613C2.58941 11.3276 3.44202 12.6694 4.52511 13.8132C6.09554 15.4807 7.83683 16.4542 8.73472 16.8226C8.90498 16.8921 9.09567 16.8921 9.26593 16.8226C10.2151 16.4387 11.8917 15.493 13.4745 13.8125C14.5575 12.6689 15.4101 11.3274 15.9857 9.8613C16.6895 8.06341 16.9775 6.06267 16.8421 3.91462Z" fill="#C5CED8"/>
</svg>
