<svg width="32" height="32" viewBox="0 0 32 32" fill="none" xmlns="http://www.w3.org/2000/svg">
<path fill-rule="evenodd" clip-rule="evenodd" d="M8 16C8 15.7348 8.10536 15.4805 8.29289 15.2929C8.48043 15.1054 8.73478 15 9 15H20.586L16.292 10.708C16.1042 10.5203 15.9987 10.2656 15.9987 10C15.9987 9.73449 16.1042 9.47982 16.292 9.29204C16.4798 9.10427 16.7344 8.99878 17 8.99878C17.2656 8.99878 17.5202 9.10427 17.708 9.29204L23.708 15.292C23.8011 15.3849 23.875 15.4953 23.9254 15.6168C23.9758 15.7383 24.0018 15.8685 24.0018 16C24.0018 16.1316 23.9758 16.2618 23.9254 16.3833C23.875 16.5048 23.8011 16.6152 23.708 16.708L17.708 22.708C17.5202 22.8958 17.2656 23.0013 17 23.0013C16.7344 23.0013 16.4798 22.8958 16.292 22.708C16.1042 22.5203 15.9987 22.2656 15.9987 22C15.9987 21.7345 16.1042 21.4798 16.292 21.292L20.586 17H9C8.73478 17 8.48043 16.8947 8.29289 16.7072C8.10536 16.5196 8 16.2653 8 16Z" fill="#FDFDFD"/>
</svg>
