<svg width="20" height="22" viewBox="0 0 20 22" fill="none" xmlns="http://www.w3.org/2000/svg">
<path d="M8.18182 10.9091C8.18182 11.9132 8.99584 12.7273 10 12.7273C11.0042 12.7273 11.8182 11.9132 11.8182 10.9091C11.8182 9.90494 11.0042 9.09091 10 9.09091C8.99584 9.09091 8.18182 9.90494 8.18182 10.9091Z" fill="#ADBDCC"/>
<path fill-rule="evenodd" clip-rule="evenodd" d="M12.7022 2.20584C12.1438 -0.735279 7.8562 -0.735279 7.29784 2.20584C6.98845 3.83552 5.27207 4.80934 3.68119 4.2578C0.810099 3.26243 -1.3337 6.91138 0.979031 8.85713C2.26052 9.93527 2.26052 11.8829 0.979031 12.9611C-1.3337 14.9068 0.810099 18.5557 3.68119 17.5604C5.27207 17.0088 6.98845 17.9827 7.29784 19.6123C7.8562 22.5535 12.1438 22.5535 12.7022 19.6123C13.0115 17.9827 14.7279 17.0088 16.3188 17.5604C19.1899 18.5557 21.3337 14.9068 19.021 12.9611C17.7395 11.8829 17.7395 9.93528 19.021 8.85713C21.3337 6.91138 19.1899 3.26243 16.3188 4.2578C14.7279 4.80934 13.0115 3.83552 12.7022 2.20584ZM6.36364 10.9091C6.36364 12.9174 7.99169 14.5455 10 14.5455C12.0083 14.5455 13.6364 12.9174 13.6364 10.9091C13.6364 8.90078 12.0083 7.27273 10 7.27273C7.99169 7.27273 6.36364 8.90078 6.36364 10.9091Z" fill="#ADBDCC"/>
</svg>
