<svg width="24" height="24" viewBox="0 0 24 24" fill="none" xmlns="http://www.w3.org/2000/svg">
<path d="M5.83796 3.0164C5.71349 2.99144 5.56412 2.99143 5.46454 3.04136C4.12021 3.56556 3.27378 5.48767 3.07462 6.81068C2.45225 11.1042 5.83796 14.8236 8.94984 17.2699C11.7132 19.4416 17.0158 23.0112 20.1526 19.5665C20.5509 19.1421 21.0239 18.518 20.9991 17.894C20.9244 16.8455 19.9534 16.0966 19.2065 15.5225C18.634 15.0982 17.4391 13.925 16.6922 13.9499C16.02 13.9749 15.5968 14.6738 15.1736 15.0982L14.4267 15.8471C14.3023 15.9718 12.709 14.9234 12.5347 14.7986C11.8875 14.3743 11.2651 13.9 10.7174 13.3758C10.1697 12.8516 9.6718 12.2774 9.24858 11.6783C9.1241 11.5036 8.10341 9.9809 8.20299 9.85608C8.20299 9.85608 9.07432 8.90751 9.32327 8.53308C9.84607 7.73428 10.2444 7.11022 9.6469 6.16165C9.42285 5.81218 9.14901 5.53759 8.85026 5.23805C8.32746 4.7388 7.80468 4.21459 7.2072 3.79023C6.88356 3.5406 6.33587 3.09129 5.83796 3.0164Z" fill="#C5CED8"/>
</svg>
