<svg width="17" height="17" viewBox="0 0 17 17" fill="none" xmlns="http://www.w3.org/2000/svg">
<path fill-rule="evenodd" clip-rule="evenodd" d="M1.25219 15.7483C1.01191 15.508 0.876919 15.1821 0.876919 14.8423C0.876919 14.5025 1.01191 14.1766 1.25219 13.9363L11.7489 3.43963L3.97013 3.44144C3.62989 3.44144 3.30359 3.30628 3.063 3.0657C2.82242 2.82511 2.68726 2.49881 2.68726 2.15857C2.68726 1.81834 2.82242 1.49203 3.063 1.25145C3.30359 1.01086 3.62989 0.875705 3.97013 0.875705L14.8419 0.875705C15.0104 0.875492 15.1773 0.90853 15.3331 0.972925C15.4888 1.03732 15.6303 1.13181 15.7495 1.25097C15.8687 1.37014 15.9632 1.51165 16.0275 1.66739C16.0919 1.82313 16.125 1.99005 16.1248 2.15857L16.1248 13.0303C16.1248 13.3706 15.9896 13.6969 15.749 13.9375C15.5084 14.178 15.1821 14.3132 14.8419 14.3132C14.5017 14.3132 14.1754 14.178 13.9348 13.9375C13.6942 13.6969 13.559 13.3706 13.559 13.0303L13.5608 5.25159L3.06415 15.7483C2.82387 15.9886 2.49798 16.1236 2.15817 16.1236C1.81836 16.1236 1.49247 15.9886 1.25219 15.7483Z" fill="#FDFDFD"/>
</svg>
