<svg width="44" height="44" viewBox="0 0 44 44" fill="none" xmlns="http://www.w3.org/2000/svg">
<path d="M0 5C0 2.23858 2.23858 0 5 0H39C41.7614 0 44 2.23858 44 5V39C44 41.7614 41.7614 44 39 44H5C2.23858 44 0 41.7614 0 39V5Z" fill="#2694B7" fill-opacity="0.1"/>
<path d="M33.5 9.5H10.5C9.94687 9.5 9.5 9.94687 9.5 10.5V33.5C9.5 34.0531 9.94687 34.5 10.5 34.5H33.5C34.0531 34.5 34.5 34.0531 34.5 33.5V10.5C34.5 9.94687 34.0531 9.5 33.5 9.5ZM28.7281 18.5531C28.7375 18.7 28.7375 18.8531 28.7375 19.0031C28.7375 23.5906 25.2437 28.875 18.8594 28.875C16.8906 28.875 15.0656 28.3031 13.5281 27.3188C13.8094 27.35 14.0781 27.3625 14.3656 27.3625C15.9906 27.3625 17.4844 26.8125 18.675 25.8813C17.15 25.85 15.8687 24.85 15.4312 23.475C15.9656 23.5531 16.4469 23.5531 16.9969 23.4125C16.2116 23.253 15.5059 22.8265 14.9994 22.2056C14.493 21.5846 14.2171 20.8075 14.2188 20.0063V19.9625C14.6781 20.2219 15.2188 20.3812 15.7844 20.4031C15.3089 20.0862 14.9189 19.6569 14.6491 19.1532C14.3793 18.6495 14.2379 18.087 14.2375 17.5156C14.2375 16.8688 14.4063 16.2781 14.7094 15.7656C15.5809 16.8386 16.6685 17.7161 17.9015 18.3411C19.1344 18.9662 20.485 19.3249 21.8656 19.3938C21.375 17.0344 23.1375 15.125 25.2563 15.125C26.2563 15.125 27.1562 15.5437 27.7906 16.2188C28.575 16.0719 29.325 15.7781 29.9937 15.3844C29.7344 16.1875 29.1906 16.8656 28.4688 17.2937C29.1688 17.2188 29.8438 17.025 30.4688 16.7531C29.9969 17.4469 29.4062 18.0625 28.7281 18.5531Z" fill="#2694B7"/>
</svg>
